<svg width="30" height="30" viewBox="0 0 40 40" fill="none" xmlns="http://www.w3.org/2000/svg">
<g clip-path="url(#clip0_132_1164)">
<path d="M32.25 16.7334C31.6902 13.8962 30.1627 11.3415 27.9284 9.50543C25.6942 7.66941 22.8918 6.66603 20 6.66669C15.1833 6.66669 11 9.40002 8.91667 13.4C6.46706 13.6647 4.20168 14.8254 2.55581 16.6589C0.909952 18.4924 -0.00028617 20.8695 6.74879e-08 23.3334C6.74879e-08 28.85 4.48333 33.3334 10 33.3334H31.6667C36.2667 33.3334 40 29.6 40 25C40 20.6 36.5833 17.0334 32.25 16.7334ZM31.6667 30H10C6.31667 30 3.33333 27.0167 3.33333 23.3334C3.33333 19.9167 5.88333 17.0667 9.26667 16.7167L11.05 16.5334L11.8833 14.95C12.6499 13.4581 13.8133 12.2066 15.2454 11.3333C16.6774 10.4599 18.3226 9.99857 20 10C24.3667 10 28.1333 13.1 28.9833 17.3834L29.4833 19.8834L32.0333 20.0667C33.2862 20.151 34.4607 20.7067 35.3204 21.622C36.18 22.5373 36.6611 23.7443 36.6667 25C36.6667 27.75 34.4167 30 31.6667 30ZM13.3333 21.6667H17.5833V26.6667H22.4167V21.6667H26.6667L20 15L13.3333 21.6667Z" fill="#0561FC"/>
</g>
<defs>
<clipPath id="clip0_132_1164">
<rect width="40" height="40" fill="white"/>
</clipPath>
</defs>
</svg>
