<svg width="25" height="25" viewBox="0 0 30 30" fill="none" xmlns="http://www.w3.org/2000/svg">
<path d="M0 7.5C0 6.50544 0.395088 5.55161 1.09835 4.84835C1.80161 4.14509 2.75544 3.75 3.75 3.75H26.25C27.2446 3.75 28.1984 4.14509 28.9016 4.84835C29.6049 5.55161 30 6.50544 30 7.5V15.9375C30 16.1861 29.9012 16.4246 29.7254 16.6004C29.5496 16.7762 29.3111 16.875 29.0625 16.875C28.8139 16.875 28.5754 16.7762 28.3996 16.6004C28.2238 16.4246 28.125 16.1861 28.125 15.9375V10.0931L15 17.9681L12.5137 16.4775L1.93875 22.9838C2.0453 23.3827 2.28059 23.7354 2.60811 23.987C2.93562 24.2385 3.33702 24.3749 3.75 24.375H14.0625C14.3111 24.375 14.5496 24.4738 14.7254 24.6496C14.9012 24.8254 15 25.0639 15 25.3125C15 25.5611 14.9012 25.7996 14.7254 25.9754C14.5496 26.1512 14.3111 26.25 14.0625 26.25H3.75C2.75868 26.25 1.80768 25.8575 1.10496 25.1583C0.402232 24.4591 0.00495661 23.5101 0 22.5188L0 7.5ZM1.875 20.8219L10.7025 15.39L1.875 10.0931V20.8219ZM1.875 7.5V7.90688L15 15.7819L28.125 7.90688V7.5C28.125 7.00272 27.9275 6.52581 27.5758 6.17417C27.2242 5.82254 26.7473 5.625 26.25 5.625H3.75C3.25272 5.625 2.77581 5.82254 2.42417 6.17417C2.07254 6.52581 1.875 7.00272 1.875 7.5Z" fill="#555555"/>
<path d="M23.4375 30C25.178 30 26.8472 29.3086 28.0779 28.0779C29.3086 26.8472 30 25.178 30 23.4375C30 21.697 29.3086 20.0278 28.0779 18.7971C26.8472 17.5664 25.178 16.875 23.4375 16.875C21.697 16.875 20.0278 17.5664 18.7971 18.7971C17.5664 20.0278 16.875 21.697 16.875 23.4375C16.875 25.178 17.5664 26.8472 18.7971 28.0779C20.0278 29.3086 21.697 30 23.4375 30ZM24.1013 19.9612L26.445 22.305C26.621 22.481 26.7199 22.7198 26.7199 22.9688C26.7199 23.2177 26.621 23.4565 26.445 23.6325C26.269 23.8085 26.0302 23.9074 25.7812 23.9074C25.5323 23.9074 25.2935 23.8085 25.1175 23.6325L24.375 22.8881V26.25C24.375 26.4986 24.2762 26.7371 24.1004 26.9129C23.9246 27.0887 23.6861 27.1875 23.4375 27.1875C23.1889 27.1875 22.9504 27.0887 22.7746 26.9129C22.5988 26.7371 22.5 26.4986 22.5 26.25V23.0306L21.975 23.6025C21.8069 23.7857 21.5729 23.8947 21.3245 23.9054C21.0761 23.9162 20.8336 23.8278 20.6503 23.6597C20.4671 23.4916 20.3581 23.2576 20.3474 23.0092C20.3366 22.7608 20.425 22.5182 20.5931 22.335L22.7475 19.9912C22.833 19.898 22.9364 19.8229 23.0517 19.7707C23.1669 19.7185 23.2915 19.6901 23.418 19.6873C23.5445 19.6845 23.6702 19.7073 23.7876 19.7544C23.9051 19.8015 24.0117 19.8718 24.1013 19.9612Z" fill="#555555"/>
</svg>
