<svg width="30" height="30" viewBox="0 0 30 30" fill="none" xmlns="http://www.w3.org/2000/svg">
<path d="M15 4.5C14.4033 4.5 13.831 4.73705 13.409 5.15901C12.9871 5.58097 12.75 6.15326 12.75 6.75C12.75 7.34674 12.9871 7.91903 13.409 8.34099C13.831 8.76295 14.4033 9 15 9C15.5967 9 16.169 8.76295 16.591 8.34099C17.0129 7.91903 17.25 7.34674 17.25 6.75C17.25 6.15326 17.0129 5.58097 16.591 5.15901C16.169 4.73705 15.5967 4.5 15 4.5ZM11.25 6.75C11.25 5.75544 11.6451 4.80161 12.3483 4.09835C13.0516 3.39509 14.0054 3 15 3C15.9946 3 16.9484 3.39509 17.6517 4.09835C18.3549 4.80161 18.75 5.75544 18.75 6.75C18.75 7.74456 18.3549 8.69839 17.6517 9.40165C16.9484 10.1049 15.9946 10.5 15 10.5C14.0054 10.5 13.0516 10.1049 12.3483 9.40165C11.6451 8.69839 11.25 7.74456 11.25 6.75ZM23.25 6C22.8522 6 22.4706 6.15804 22.1893 6.43934C21.908 6.72064 21.75 7.10218 21.75 7.5C21.75 7.89782 21.908 8.27936 22.1893 8.56066C22.4706 8.84196 22.8522 9 23.25 9C23.6478 9 24.0294 8.84196 24.3107 8.56066C24.592 8.27936 24.75 7.89782 24.75 7.5C24.75 7.10218 24.592 6.72064 24.3107 6.43934C24.0294 6.15804 23.6478 6 23.25 6ZM20.25 7.5C20.25 6.70435 20.5661 5.94129 21.1287 5.37868C21.6913 4.81607 22.4544 4.5 23.25 4.5C24.0456 4.5 24.8087 4.81607 25.3713 5.37868C25.9339 5.94129 26.25 6.70435 26.25 7.5C26.25 8.29565 25.9339 9.05871 25.3713 9.62132C24.8087 10.1839 24.0456 10.5 23.25 10.5C22.4544 10.5 21.6913 10.1839 21.1287 9.62132C20.5661 9.05871 20.25 8.29565 20.25 7.5ZM5.25 7.5C5.25 7.10218 5.40804 6.72064 5.68934 6.43934C5.97064 6.15804 6.35218 6 6.75 6C7.14782 6 7.52936 6.15804 7.81066 6.43934C8.09196 6.72064 8.25 7.10218 8.25 7.5C8.25 7.89782 8.09196 8.27936 7.81066 8.56066C7.52936 8.84196 7.14782 9 6.75 9C6.35218 9 5.97064 8.84196 5.68934 8.56066C5.40804 8.27936 5.25 7.89782 5.25 7.5ZM6.75 4.5C5.95435 4.5 5.19129 4.81607 4.62868 5.37868C4.06607 5.94129 3.75 6.70435 3.75 7.5C3.75 8.29565 4.06607 9.05871 4.62868 9.62132C5.19129 10.1839 5.95435 10.5 6.75 10.5C7.54565 10.5 8.30871 10.1839 8.87132 9.62132C9.43393 9.05871 9.75 8.29565 9.75 7.5C9.75 6.70435 9.43393 5.94129 8.87132 5.37868C8.30871 4.81607 7.54565 4.5 6.75 4.5ZM7.65 22.497L7.5 22.5C6.70435 22.5 5.94129 22.1839 5.37868 21.6213C4.81607 21.0587 4.5 20.2956 4.5 19.5V13.875C4.5 13.7755 4.53951 13.6802 4.60984 13.6098C4.68016 13.5395 4.77554 13.5 4.875 13.5H7.521C7.581 12.9495 7.776 12.438 8.0685 12H4.875C3.84 12 3 12.84 3 13.875V19.5C2.99993 20.1422 3.13731 20.7769 3.4029 21.3616C3.6685 21.9463 4.05616 22.4674 4.53983 22.8898C5.02351 23.3122 5.592 23.6263 6.2071 23.8108C6.8222 23.9953 7.46967 24.046 8.106 23.9595C7.90448 23.4888 7.75168 22.9988 7.65 22.497ZM21.894 23.9595C22.092 23.9865 22.294 24 22.5 24C23.6935 24 24.8381 23.5259 25.682 22.682C26.5259 21.8381 27 20.6935 27 19.5V13.875C27 12.84 26.16 12 25.125 12H21.9315C22.2255 12.438 22.419 12.9495 22.479 13.5H25.125C25.2245 13.5 25.3198 13.5395 25.3902 13.6098C25.4605 13.6802 25.5 13.7755 25.5 13.875V19.5C25.5001 19.9067 25.4175 20.3091 25.2573 20.6829C25.097 21.0566 24.8625 21.3939 24.5679 21.6742C24.2733 21.9545 23.9247 22.172 23.5435 22.3134C23.1622 22.4549 22.7561 22.5173 22.35 22.497C22.2483 22.9988 22.0955 23.4888 21.894 23.9595ZM10.875 12C9.84 12 9 12.84 9 13.875V21C9 22.5913 9.63214 24.1174 10.7574 25.2426C11.8826 26.3679 13.4087 27 15 27C16.5913 27 18.1174 26.3679 19.2426 25.2426C20.3679 24.1174 21 22.5913 21 21V13.875C21 12.84 20.16 12 19.125 12H10.875ZM10.5 13.875C10.5 13.7755 10.5395 13.6802 10.6098 13.6098C10.6802 13.5395 10.7755 13.5 10.875 13.5H19.125C19.2245 13.5 19.3198 13.5395 19.3902 13.6098C19.4605 13.6802 19.5 13.7755 19.5 13.875V21C19.5 22.1935 19.0259 23.3381 18.182 24.182C17.3381 25.0259 16.1935 25.5 15 25.5C13.8065 25.5 12.6619 25.0259 11.818 24.182C10.9741 23.3381 10.5 22.1935 10.5 21V13.875Z" fill="#555555"/>
</svg>
