<svg width="35" height="35" viewBox="0 0 40 40" fill="none" xmlns="http://www.w3.org/2000/svg">
<path d="M21.7074 7.71929C21.8896 7.53069 21.9904 7.27808 21.9881 7.01589C21.9858 6.75369 21.8807 6.50288 21.6953 6.31747C21.5099 6.13206 21.259 6.02689 20.9968 6.02461C20.7347 6.02234 20.482 6.12313 20.2934 6.30529L18.0004 8.59829L15.7074 6.30529C15.6152 6.20978 15.5049 6.1336 15.3829 6.08119C15.2608 6.02878 15.1296 6.00119 14.9968 6.00004C14.8641 5.99888 14.7324 6.02419 14.6095 6.07447C14.4866 6.12475 14.3749 6.199 14.2811 6.29289C14.1872 6.38679 14.1129 6.49844 14.0626 6.62133C14.0123 6.74423 13.987 6.87591 13.9882 7.00869C13.9894 7.14147 14.0169 7.27269 14.0693 7.39469C14.1218 7.5167 14.1979 7.62704 14.2934 7.71929L16.5864 10.0123L14.2934 12.3053C14.1113 12.4939 14.0105 12.7465 14.0128 13.0087C14.0151 13.2709 14.1202 13.5217 14.3056 13.7071C14.491 13.8925 14.7419 13.9977 15.004 14C15.2662 14.0022 15.5188 13.9014 15.7074 13.7193L18.0004 11.4263L20.2934 13.7193C20.4811 13.9068 20.7355 14.0121 21.0008 14.012C21.2661 14.0119 21.5204 13.9064 21.7079 13.7188C21.8955 13.5311 22.0007 13.2767 22.0007 13.0114C22.0006 12.7462 21.8951 12.4918 21.7074 12.3043L19.4144 10.0123L21.7074 7.71929Z" fill="#555555"/>
<path fill-rule="evenodd" clip-rule="evenodd" d="M0.684448 26.4613L4.00045 27.5663V36.0123C4.00045 36.2202 4.06528 36.423 4.1859 36.5924C4.30652 36.7617 4.47694 36.8893 4.67345 36.9573L17.6654 41.4543C17.8709 41.5273 18.0946 41.5312 18.3024 41.4653L18.3164 41.4613L18.3314 41.4563L31.3274 36.9573C31.524 36.8893 31.6944 36.7617 31.815 36.5924C31.9356 36.423 32.0004 36.2202 32.0005 36.0123V27.5663L35.3165 26.4613C35.4694 26.4104 35.6078 26.3233 35.7198 26.2075C35.8319 26.0916 35.9143 25.9503 35.9599 25.7957C36.0056 25.6411 36.0132 25.4778 35.9821 25.3196C35.9511 25.1614 35.8822 25.0131 35.7814 24.8873L31.7814 19.8873C31.6628 19.7396 31.5047 19.6286 31.3254 19.5673L18.3274 15.0673C18.1156 14.994 17.8853 14.994 17.6734 15.0673L4.67545 19.5673C4.49621 19.6286 4.33807 19.7396 4.21945 19.8873L0.219448 24.8873C0.118686 25.0131 0.0498342 25.1614 0.0187585 25.3196C-0.0123172 25.4778 -0.00469527 25.6411 0.0409748 25.7957C0.0866449 25.9503 0.169009 26.0916 0.28105 26.2075C0.393092 26.3233 0.531488 26.4104 0.684448 26.4613ZM15.3194 30.5853L17.0004 28.1853V39.1083L6.00045 35.3003V28.2323L14.1844 30.9603C14.3889 31.0283 14.6098 31.0284 14.8143 30.9606C15.0188 30.8929 15.196 30.7619 15.3194 30.5853ZM8.05745 20.5123L18.0004 23.9543L27.9434 20.5123L18.0004 17.0703L8.05745 20.5123ZM20.6814 30.5863L19.0004 28.1843V39.1083L30.0004 35.3003V28.2323L21.8164 30.9603C21.612 31.0283 21.3911 31.0284 21.1866 30.9606C20.9821 30.8929 20.8049 30.7609 20.6814 30.5843M5.34045 21.6883L2.67745 25.0173L8.18845 26.8543L14.1084 28.8273L16.4214 25.5243L16.2864 25.4773L5.34045 21.6883ZM33.3235 25.0173L30.6604 21.6873L19.5794 25.5243L21.8924 28.8273L33.3235 25.0173Z" fill="#555555"/>
</svg>
