<svg width="35" height="35" viewBox="0 0 35 35" fill="none" xmlns="http://www.w3.org/2000/svg">
<path d="M8.19004 29.1666C7.51824 29.1666 6.95775 28.9421 6.50858 28.4929C6.05942 28.0437 5.83435 27.4828 5.83337 26.81V8.18998C5.83337 7.51817 6.05844 6.95769 6.50858 6.50852C6.95872 6.05935 7.51921 5.83429 8.19004 5.83331H17.5277V7.29165H8.19004C7.96546 7.29165 7.75935 7.38498 7.57171 7.57165C7.38407 7.75831 7.29074 7.96442 7.29171 8.18998V26.8114C7.29171 27.035 7.38504 27.2407 7.57171 27.4283C7.75837 27.616 7.964 27.7093 8.18858 27.7083H17.5277V29.1666H8.19004ZM24.0071 22.661L22.9834 21.611L26.3652 18.2291H13.405V16.7708H26.3652L22.9819 13.3875L24.0057 12.3404L29.1667 17.5L24.0071 22.661Z" fill="#FF0000"/>
</svg>
