<svg width="30" height="30" viewBox="0 0 40 40" fill="none" xmlns="http://www.w3.org/2000/svg">
<path d="M13.3333 19.5834V12.5C13.3333 11.8056 13.5767 11.2156 14.0633 10.73C14.55 10.2445 15.14 10.0012 15.8333 10C16.5267 9.99893 17.1172 10.2423 17.605 10.73C18.0928 11.2178 18.3356 11.8078 18.3333 12.5V19.5834C18.3333 20.2778 18.0906 20.8684 17.605 21.355C17.1194 21.8417 16.5289 22.0845 15.8333 22.0834C15.1378 22.0823 14.5478 21.8395 14.0633 21.355C13.5789 20.8706 13.3356 20.28 13.3333 19.5834ZM21.6667 19.2084V5.83338C21.6667 5.13893 21.91 4.54893 22.3967 4.06338C22.8833 3.57782 23.4733 3.33449 24.1667 3.33338C24.86 3.33227 25.4506 3.5756 25.9383 4.06338C26.4261 4.55116 26.6689 5.14116 26.6667 5.83338V19.2084C26.6667 20.0417 26.41 20.6667 25.8967 21.0834C25.3833 21.5 24.8067 21.7084 24.1667 21.7084C23.5267 21.7084 22.9506 21.5 22.4383 21.0834C21.9261 20.6667 21.6689 20.0417 21.6667 19.2084ZM5 24.9584V19.1667C5 18.4723 5.24333 17.8823 5.73 17.3967C6.21667 16.9112 6.80667 16.6678 7.5 16.6667C8.19333 16.6656 8.78389 16.9089 9.27167 17.3967C9.75944 17.8845 10.0022 18.4745 10 19.1667V24.9584C10 25.7917 9.74333 26.4167 9.23 26.8334C8.71667 27.25 8.14 27.4584 7.5 27.4584C6.86 27.4584 6.28389 27.25 5.77167 26.8334C5.25944 26.4167 5.00222 25.7917 5 24.9584ZM9 35.0834C8.27778 35.0834 7.77056 34.7434 7.47833 34.0634C7.18611 33.3834 7.30444 32.7789 7.83333 32.25L14.6667 25.4167C14.9722 25.1112 15.3406 24.9445 15.7717 24.9167C16.2028 24.8889 16.5844 25.0278 16.9167 25.3334L21.6667 29.4167L31 20.0834H30C29.5278 20.0834 29.1322 19.9234 28.8133 19.6034C28.4944 19.2834 28.3344 18.8878 28.3333 18.4167C28.3322 17.9456 28.4922 17.55 28.8133 17.23C29.1344 16.91 29.53 16.75 30 16.75H35C35.4722 16.75 35.8683 16.91 36.1883 17.23C36.5083 17.55 36.6678 17.9456 36.6667 18.4167V23.4167C36.6667 23.8889 36.5067 24.285 36.1867 24.605C35.8667 24.925 35.4711 25.0845 35 25.0834C34.5289 25.0823 34.1333 24.9223 33.8133 24.6034C33.4933 24.2845 33.3333 23.8889 33.3333 23.4167V22.4167L22.9167 32.8334C22.6111 33.1389 22.2428 33.3056 21.8117 33.3334C21.3806 33.3612 20.9989 33.2223 20.6667 32.9167L15.9167 28.8334L10.1667 34.5834C10.0278 34.7223 9.85444 34.8406 9.64667 34.9384C9.43889 35.0362 9.22333 35.0845 9 35.0834Z" fill="#555555"/>
</svg>
