<svg width="30" height="30" viewBox="0 0 30 30" fill="none" xmlns="http://www.w3.org/2000/svg">
<path d="M18.8943 0.710609C17.5945 0.21064 16.1554 0.21064 14.8556 0.710609L5.5537 4.28811C5.02294 4.49204 4.56646 4.85206 4.24445 5.32068C3.92244 5.7893 3.75003 6.34452 3.74995 6.91311V11.7319C4.34745 11.5194 4.97245 11.3756 5.62495 11.3006V7.44936L15.9375 11.8687V25.0856L16.7662 25.9144C17.4931 25.9281 18.2159 25.8007 18.8943 25.5394L28.1981 21.9619C28.7285 21.7576 29.1846 21.3975 29.5062 20.9289C29.8279 20.4603 30 19.9052 30 19.3369V6.91311C30 6.34474 29.8279 5.78968 29.5062 5.32108C29.1846 4.85249 28.7285 4.49234 28.1981 4.28811L18.8943 0.710609ZM15.5287 2.45998C16.3953 2.12667 17.3547 2.12667 18.2212 2.45998L27.0675 5.86311L23.4168 7.42686L12.9337 3.45936L15.5287 2.45998ZM17.8125 11.8687L28.125 7.44936V19.3369C28.1252 19.5263 28.0679 19.7115 27.9608 19.8678C27.8537 20.0241 27.7017 20.1443 27.525 20.2125L18.2212 23.79C18.0875 23.8425 17.9512 23.8862 17.8125 23.9212V11.8687ZM16.875 10.23L6.68245 5.86123L10.3068 4.46811L20.9325 8.49186L16.875 10.23ZM6.56245 26.25C8.0362 26.25 9.39745 25.7625 10.4925 24.9431L15.2737 29.7244C15.3607 29.8115 15.4641 29.8807 15.5779 29.9279C15.6916 29.9751 15.8136 29.9995 15.9368 29.9996C16.06 29.9997 16.182 29.9755 16.2958 29.9284C16.4096 29.8814 16.5131 29.8123 16.6003 29.7253C16.6874 29.6383 16.7566 29.5349 16.8038 29.4211C16.851 29.3074 16.8754 29.1854 16.8755 29.0622C16.8756 28.939 16.8514 28.817 16.8043 28.7032C16.7573 28.5894 16.6882 28.4859 16.6012 28.3987L11.82 23.6175C12.705 22.4339 13.1646 20.9863 13.1244 19.509C13.0842 18.0317 12.5466 16.6112 11.5985 15.4775C10.6504 14.3439 9.34748 13.5634 7.90059 13.2625C6.4537 12.9615 4.9476 13.1578 3.62615 13.8195C2.3047 14.4811 1.24527 15.5695 0.619396 16.9083C-0.00647424 18.247 -0.16214 19.7579 0.177604 21.1961C0.517348 22.6344 1.33261 23.9159 2.49139 24.8331C3.65016 25.7503 5.0846 26.2496 6.56245 26.25ZM6.56245 24.375C5.31925 24.375 4.12697 23.8811 3.24789 23.002C2.36881 22.123 1.87495 20.9307 1.87495 19.6875C1.87495 18.4443 2.36881 17.252 3.24789 16.3729C4.12697 15.4938 5.31925 15 6.56245 15C7.80566 15 8.99794 15.4938 9.87702 16.3729C10.7561 17.252 11.25 18.4443 11.25 19.6875C11.25 20.9307 10.7561 22.123 9.87702 23.002C8.99794 23.8811 7.80566 24.375 6.56245 24.375Z" fill="#555555"/>
</svg>
