<svg width="30" height="30" viewBox="0 0 40 40" fill="none" xmlns="http://www.w3.org/2000/svg">
<path d="M26.6666 18.0952L13.3333 10.4761M21.8895 7.74662L31.4133 13.1885C31.9966 13.5217 32.4815 14.0033 32.8187 14.5844C33.1559 15.1654 33.3334 15.8253 33.3333 16.4971V25.4076C33.3334 26.0794 33.1559 26.7393 32.8187 27.3203C32.4815 27.9014 31.9966 28.3829 31.4133 28.7161L21.8895 34.1581C21.314 34.4868 20.6627 34.6597 20 34.6597C19.3372 34.6597 18.6859 34.4868 18.1104 34.1581L8.58663 28.7161C8.00328 28.3829 7.51843 27.9014 7.18124 27.3203C6.84405 26.7393 6.66651 26.0794 6.66663 25.4076V16.4971C6.66651 15.8253 6.84405 15.1654 7.18124 14.5844C7.51843 14.0033 8.00328 13.5217 8.58663 13.1885L18.1104 7.74662C18.6859 7.4179 19.3372 7.245 20 7.245C20.6627 7.245 21.314 7.4179 21.8895 7.74662Z" stroke="#555555" stroke-width="2.38095" stroke-linecap="round" stroke-linejoin="round"/>
<path d="M7.61902 15.238L18.1943 20.9333C18.7492 21.232 19.3697 21.3884 20 21.3884C20.6303 21.3884 21.2507 21.232 21.8057 20.9333L32.3809 15.238M20 21.9047V34.2857" stroke="#555555" stroke-width="2.38095" stroke-linecap="round" stroke-linejoin="round"/>
</svg>
