<svg width="885" height="772" viewBox="0 0 885 772" fill="none" xmlns="http://www.w3.org/2000/svg">
<path d="M826.395 488.213H536.31V341.78H826.395V488.213ZM538.08 486.669H824.625V343.324H538.08V486.669Z" fill="#E0E0E0"/>
<path d="M766.551 419.86H575.161V424.754H766.551V419.86Z" fill="#F0F0F0"/>
<path d="M779.738 438.11H575.161V443.452H779.738V438.11Z" fill="#F0F0F0"/>
<path d="M779.738 456.576H575.161V461.919H779.738V456.576Z" fill="#F0F0F0"/>
<path d="M642.05 393.349H575.161V406.057H642.05V393.349Z" fill="#F0F0F0"/>
<path d="M825.51 342.552H537.248V365.866H825.51V342.552Z" fill="#E0E0E0"/>
<path d="M803.332 362.377C802.96 362.068 806.677 358.162 811.616 353.653C816.554 349.145 820.89 345.733 821.244 346.026C821.598 346.319 817.899 350.241 812.961 354.765C808.023 359.289 803.686 362.686 803.332 362.377Z" fill="white"/>
<path d="M821.28 362.377C820.926 362.686 816.607 359.289 811.651 354.765C806.695 350.241 802.996 346.335 803.368 346.026C803.739 345.717 808.04 349.114 812.996 353.653C817.952 358.193 821.616 362.068 821.28 362.377Z" fill="white"/>
<path d="M469.439 52.5732H181.177V197.478H469.439V52.5732Z" fill="#E6E6E6"/>
<path d="M410.498 129.897H219.108V134.791H410.498V129.897Z" fill="#F0F0F0"/>
<path d="M423.685 148.147H219.108V153.489H423.685V148.147Z" fill="#F0F0F0"/>
<path d="M423.685 166.613H219.108V171.955H423.685V166.613Z" fill="#F0F0F0"/>
<path d="M285.997 103.386H219.108V116.093H285.997V103.386Z" fill="#F0F0F0"/>
<path d="M469.439 52.5732H181.177V75.8876H469.439V52.5732Z" fill="#E0E0E0"/>
<path d="M446.288 72.2901C445.916 71.9967 449.633 68.075 454.571 63.5665C459.51 59.058 463.846 55.6458 464.2 55.9546C464.554 56.2634 460.855 60.1697 455.917 64.6782C450.978 69.1867 446.642 72.568 446.288 72.2901Z" fill="white"/>
<path d="M464.2 72.2901C463.846 72.5989 459.527 69.2021 454.571 64.6781C449.615 60.1542 445.916 56.2633 446.288 55.9545C446.66 55.6457 450.961 59.0425 455.917 63.5665C460.873 68.0904 464.572 71.9967 464.2 72.2901Z" fill="white"/>
<path d="M360.266 321.754H70.2336V175.306H360.266V321.754ZM72.0036 320.21H358.496V176.85H72.0036V320.21Z" fill="#E0E0E0"/>
<path d="M300.44 253.401H109.05V258.296H300.44V253.401Z" fill="#F0F0F0"/>
<path d="M313.626 271.651H109.05V276.994H313.626V271.651Z" fill="#F0F0F0"/>
<path d="M313.626 290.118H109.05V295.46H313.626V290.118Z" fill="#F0F0F0"/>
<path d="M175.938 226.891H109.05V239.598H175.938V226.891Z" fill="#F0F0F0"/>
<path d="M359.381 176.078H71.1186V199.392H359.381V176.078Z" fill="#E0E0E0"/>
<path d="M694.99 355.305H354.619V621.12H694.99V355.305Z" fill="#E6E6E6"/>
<path d="M371.735 271.574H105.103V513.226H371.735V271.574Z" fill="#F0F0F0"/>
<path d="M371.735 271.574H105.103V297.899H371.735V271.574Z" fill="#E0E0E0"/>
<path d="M127.121 284.467C127.073 285.421 126.704 286.342 126.061 287.116C125.417 287.889 124.528 288.481 123.503 288.817C122.477 289.154 121.361 289.22 120.293 289.008C119.225 288.796 118.252 288.315 117.494 287.625C116.736 286.935 116.228 286.066 116.031 285.126C115.835 284.186 115.959 283.216 116.389 282.337C116.818 281.458 117.534 280.708 118.448 280.181C119.362 279.654 120.433 279.372 121.528 279.371C123.043 279.404 124.482 279.958 125.53 280.913C126.578 281.867 127.15 283.145 127.121 284.467Z" fill="white"/>
<path d="M149.831 284.467C149.785 285.426 149.418 286.352 148.774 287.13C148.13 287.909 147.237 288.505 146.208 288.844C145.179 289.184 144.058 289.251 142.984 289.039C141.911 288.827 140.933 288.344 140.172 287.651C139.411 286.958 138.9 286.084 138.704 285.14C138.507 284.195 138.633 283.221 139.067 282.339C139.5 281.456 140.221 280.704 141.141 280.177C142.06 279.649 143.137 279.369 144.237 279.371C145.752 279.404 147.191 279.958 148.239 280.913C149.287 281.867 149.859 283.145 149.831 284.467Z" fill="white"/>
<path d="M172.54 284.467C172.494 285.426 172.127 286.352 171.483 287.13C170.839 287.909 169.946 288.505 168.917 288.844C167.888 289.184 166.767 289.251 165.693 289.039C164.62 288.827 163.642 288.344 162.881 287.651C162.12 286.958 161.609 286.084 161.413 285.14C161.216 284.195 161.342 283.221 161.776 282.339C162.209 281.456 162.93 280.704 163.85 280.177C164.769 279.649 165.846 279.369 166.946 279.371C168.461 279.404 169.9 279.958 170.948 280.913C171.996 281.867 172.568 283.145 172.54 284.467Z" fill="white"/>
<path d="M788.323 105.424H447.952V401.347H788.323V105.424Z" fill="#F0F0F0"/>
<path d="M788.323 105.424H447.952V140.087H788.323V105.424Z" fill="#E0E0E0"/>
<path d="M476.944 122.408C476.882 123.669 476.396 124.885 475.548 125.907C474.7 126.928 473.527 127.71 472.174 128.155C470.821 128.6 469.348 128.689 467.938 128.41C466.528 128.131 465.243 127.497 464.242 126.586C463.241 125.675 462.569 124.529 462.31 123.288C462.05 122.047 462.213 120.767 462.78 119.607C463.347 118.446 464.292 117.457 465.498 116.761C466.704 116.065 468.117 115.693 469.563 115.692C471.562 115.733 473.46 116.462 474.844 117.721C476.227 118.98 476.982 120.665 476.944 122.408Z" fill="white"/>
<path d="M504.68 117.869C505.661 118.799 506.307 119.959 506.538 121.207C506.768 122.455 506.572 123.734 505.975 124.885C505.378 126.036 504.405 127.009 503.179 127.681C501.953 128.354 500.527 128.697 499.078 128.667C497.63 128.638 496.224 128.237 495.035 127.515C493.846 126.794 492.927 125.783 492.392 124.608C491.857 123.434 491.729 122.148 492.026 120.912C492.323 119.675 493.03 118.541 494.06 117.653C495.503 116.455 497.431 115.806 499.421 115.846C501.412 115.887 503.303 116.614 504.68 117.869Z" fill="white"/>
<path d="M536.735 122.408C536.672 123.669 536.187 124.885 535.339 125.907C534.491 126.928 533.318 127.71 531.965 128.155C530.612 128.6 529.139 128.689 527.728 128.41C526.318 128.131 525.033 127.497 524.033 126.586C523.032 125.675 522.36 124.529 522.1 123.288C521.84 122.047 522.004 120.767 522.57 119.607C523.137 118.446 524.082 117.457 525.288 116.761C526.494 116.065 527.908 115.693 529.354 115.692C531.352 115.733 533.251 116.462 534.634 117.721C536.017 118.98 536.773 120.665 536.735 122.408Z" fill="white"/>
<path d="M714.797 699.633C714.797 699.849 591.888 700.034 440.323 700.034C288.758 700.034 165.796 699.849 165.796 699.633C165.796 699.417 288.687 699.231 440.323 699.231C591.959 699.231 714.797 699.432 714.797 699.633Z" fill="#263238"/>
<path d="M595.039 510.616C567.692 493.956 561.497 463.03 562.577 435.223C562.754 430.591 562.17 425.681 564.701 421.62C567.232 417.559 573.144 414.765 577.905 416.71C581.852 418.331 583.569 422.346 585.782 425.665C588.734 430.087 593.06 433.689 598.26 436.056C601.641 437.6 605.836 438.527 609.181 436.921C613.783 434.713 614.314 429.201 614.279 424.569C614.279 415.954 614.22 407.348 614.102 398.753C613.783 394.138 614.321 389.508 615.695 385.043C617.341 380.658 621.005 376.597 626.014 375.362C631.023 374.127 637.271 376.674 638.404 381.183C638.599 383.092 638.652 385.011 638.563 386.926C638.705 388.856 639.731 390.972 641.802 391.558C643.873 392.145 646.032 390.802 647.625 389.443C653.077 384.811 656.794 378.774 660.245 372.814C663.697 366.854 667.078 360.725 672.034 355.645C676.99 350.565 683.84 346.535 691.504 346.149C699.168 345.763 707.15 349.87 709.062 356.355C710.974 362.84 706.637 369.464 701.982 374.729C694.958 382.544 686.677 389.434 677.397 395.187C675.585 396.05 674.139 397.397 673.273 399.031C672.122 402.119 675.467 405.207 678.954 406.18C682.901 407.323 687.185 406.967 691.344 407.4C695.504 407.832 699.929 409.407 701.504 412.804C703.664 417.528 699.132 422.469 694.69 425.712C685.769 432.196 675.639 437.299 664.741 440.797C660.847 442.032 656.759 443.128 653.608 445.506C650.457 447.883 648.581 452.037 650.475 455.295C652.369 458.553 657.236 459.587 661.325 458.923C665.414 458.259 669.042 456.345 672.936 455.063C680.211 452.67 689.592 453.102 694.176 458.583C695.597 460.472 696.496 462.621 696.803 464.864C697.11 467.106 696.817 469.38 695.946 471.507C694.175 475.739 691.448 479.619 687.928 482.917C676.336 494.999 661.273 504.18 644.28 509.52C627.412 514.615 611.783 516.005 595.021 510.647" fill="#2F515F"/>
<path d="M701.274 349.963C701.274 349.963 701.115 350.117 700.761 350.395L699.186 351.615C697.805 352.696 695.77 354.271 693.203 356.355C685.926 362.249 679.169 368.613 672.99 375.393C669.043 379.67 664.954 384.518 660.6 389.783C656.245 395.048 651.75 400.73 647.289 406.767C642.534 413.133 638.179 419.72 634.244 426.499C632.191 430.035 630.386 433.725 628.527 437.492L623.04 448.995C615.808 463.484 609.508 478.314 604.172 493.416C599.874 505.772 596.911 518.452 595.322 531.29C594.293 539.954 594.127 548.68 594.826 557.368C595.11 560.456 595.375 562.819 595.623 564.425C595.729 565.197 595.8 565.814 595.871 566.262V566.895C595.795 566.694 595.741 566.487 595.711 566.277C595.623 565.83 595.517 565.227 595.375 564.455C595.057 562.911 594.72 560.472 594.402 557.384C593.548 548.679 593.607 539.924 594.579 531.229C596.069 518.336 598.967 505.597 603.234 493.184C608.525 478.04 614.807 463.173 622.049 448.655L627.678 437.199C629.536 433.447 631.359 429.726 633.43 426.175C637.392 419.375 641.783 412.772 646.581 406.396C651.112 400.22 655.679 394.631 659.98 389.412C664.281 384.193 668.441 379.314 672.37 375.053C678.613 368.291 685.461 361.972 692.849 356.154C695.469 354.101 697.557 352.557 698.973 351.522L700.619 350.364C700.821 350.211 701.041 350.077 701.274 349.963Z" fill="#263238"/>
<path d="M633.66 426.144C633.41 425.508 633.238 424.851 633.147 424.183C632.864 422.902 632.545 421.095 632.173 418.748C631.412 414.116 630.633 407.77 629.801 400.745C628.97 393.72 628.031 387.359 627.253 382.773C626.846 380.488 626.492 378.651 626.244 377.369C626.05 376.713 625.949 376.039 625.943 375.362C626.248 375.98 626.467 376.628 626.598 377.292C626.987 378.558 627.43 380.38 627.925 382.68C628.934 387.312 629.925 393.612 630.757 400.653C631.589 407.693 632.297 413.869 632.846 418.671C633.111 420.833 633.341 422.67 633.518 424.137C633.656 424.799 633.703 425.472 633.66 426.144Z" fill="#263238"/>
<path d="M701.77 415.058C700.908 415.222 700.031 415.315 699.15 415.336C697.38 415.475 694.867 415.66 691.751 415.969C685.521 416.556 676.954 417.636 667.556 419.18C658.157 420.724 649.714 422.469 643.643 423.812C640.616 424.492 638.174 425.109 636.563 425.526C635.703 425.793 634.813 425.979 633.908 426.082C634.726 425.723 635.579 425.429 636.457 425.202C638.12 424.693 640.528 423.982 643.537 423.226C649.572 421.682 658.015 419.844 667.449 418.27C675.441 416.937 683.505 415.957 691.61 415.336C694.743 415.104 697.274 415.012 699.044 414.981C699.953 414.927 700.866 414.953 701.77 415.058Z" fill="#263238"/>
<path d="M604.101 492.104C603.912 491.88 603.758 491.636 603.641 491.378L602.473 489.232C601.464 487.364 600.101 484.6 598.473 481.218C595.18 474.425 590.985 464.914 586.525 454.353C582.065 443.792 577.958 434.281 574.843 427.41C573.321 424.075 572.064 421.342 571.126 419.304L570.135 417.096C569.997 416.842 569.902 416.571 569.852 416.293C570.04 416.517 570.195 416.761 570.312 417.019L571.48 419.165C572.471 421.033 573.852 423.797 575.48 427.178C578.772 433.972 582.967 443.483 587.428 454.044C591.888 464.605 595.995 474.116 599.11 480.987C600.632 484.322 601.889 487.055 602.809 489.093C603.216 489.973 603.552 490.637 603.818 491.301C603.955 491.555 604.051 491.826 604.101 492.104Z" fill="#263238"/>
<path d="M694.513 466.674C694.229 466.816 693.926 466.925 693.61 466.998L690.99 467.77L681.309 470.503C673.131 472.819 661.839 476.123 649.449 479.767C637.059 483.411 625.713 486.653 617.482 488.815C613.376 489.911 610.031 490.745 607.712 491.301L605.039 491.903C604.728 491.989 604.408 492.046 604.083 492.073C604.367 491.931 604.67 491.822 604.986 491.748L607.606 490.976L617.288 488.244C625.465 485.928 636.758 482.623 649.148 478.98C661.538 475.336 672.866 472.093 681.096 469.932C685.22 468.836 688.548 468.002 690.884 467.446L693.557 466.844C693.868 466.758 694.188 466.701 694.513 466.674Z" fill="#263238"/>
<path d="M657.626 92.1459L648.51 94.9869L644.599 84.5957C637.412 65.4347 614.509 55.2597 593.463 61.7291C572.418 68.1985 561.214 89.2123 568.4 108.373L572.312 118.764L563.161 121.621C559.671 122.801 556.838 125.11 555.249 128.066C553.66 131.022 553.438 134.398 554.629 137.493L579.994 205.105C580.52 206.637 581.394 208.061 582.564 209.293C583.734 210.525 585.176 211.538 586.804 212.274C588.432 213.01 590.213 213.453 592.041 213.577C593.869 213.701 595.707 213.503 597.446 212.995L691.911 183.52C695.446 182.341 698.32 180.013 699.928 177.024C701.535 174.035 701.751 170.618 700.531 167.493L675.149 99.8813C674.609 98.3535 673.721 96.9362 672.539 95.7141C671.357 94.4919 669.906 93.49 668.27 92.7681C666.635 92.0461 664.849 91.6189 663.02 91.512C661.192 91.4052 659.357 91.6207 657.626 92.1459ZM585.622 102.954C583.684 97.9717 584.032 92.5288 586.593 87.7653C589.153 83.0019 593.727 79.2876 599.357 77.4007C602.137 76.571 605.08 76.2383 608.011 76.4224C610.942 76.6065 613.8 77.3037 616.415 78.4723C619.03 79.641 621.348 81.2571 623.231 83.2244C625.115 85.1916 626.524 87.4697 627.376 89.9225L631.27 100.314L589.516 113.345L585.622 102.954ZM638.722 162.954L645.2 180.216C645.319 180.562 645.281 180.935 645.093 181.257C644.905 181.579 644.582 181.825 644.191 181.945L635.111 184.77C634.75 184.858 634.364 184.82 634.034 184.664C633.704 184.509 633.456 184.248 633.341 183.937L626.81 166.752C623.209 166.581 619.753 165.454 616.906 163.522C614.059 161.591 611.957 158.947 610.88 155.944C609.341 151.974 609.621 147.639 611.664 143.846C613.706 140.053 617.351 137.096 621.836 135.594C624.051 134.934 626.395 134.67 628.729 134.817C631.063 134.964 633.34 135.519 635.422 136.45C637.505 137.381 639.352 138.668 640.852 140.234C642.353 141.801 643.476 143.615 644.156 145.568C645.295 148.619 645.389 151.892 644.427 154.989C643.465 158.085 641.489 160.869 638.74 163L638.722 162.954Z" fill="#2F515F"/>
<path d="M648.103 94.8016C648.103 95.0178 631.2 100.561 610.172 107.154C589.144 113.747 571.993 119.042 571.905 118.888C571.816 118.734 588.808 113.144 609.853 106.536C630.899 99.9277 648.015 94.6009 648.103 94.8016Z" fill="#263238"/>
<path d="M668.175 97.6426C668.253 97.7766 668.318 97.916 668.37 98.0595C668.511 98.3683 668.67 98.7697 668.883 99.2638C669.343 100.391 669.98 101.95 670.777 103.896L677.574 121.158C680.406 128.476 683.786 137.154 687.539 146.788C689.309 151.621 691.397 156.654 693.344 161.95C694.386 164.679 694.837 167.554 694.672 170.427C694.522 171.921 694.034 173.374 693.238 174.704C692.387 176.028 691.252 177.198 689.893 178.147C687.158 179.888 684.123 181.238 680.901 182.146L671.786 185.002L654.528 190.391L625.305 199.469L605.57 205.522L600.26 207.066L598.844 207.467C598.693 207.526 598.531 207.563 598.366 207.575C598.366 207.575 598.508 207.575 598.809 207.39L600.189 206.911L605.499 205.167L625.128 198.867L654.298 189.603L671.52 184.168L680.636 181.296C683.766 180.426 686.713 179.117 689.362 177.421C690.626 176.54 691.684 175.455 692.477 174.225C693.227 172.996 693.678 171.645 693.804 170.257C693.967 167.489 693.535 164.719 692.53 162.089C690.618 156.84 688.601 151.76 686.778 146.927C683.096 137.277 679.698 128.569 677.007 121.25C674.317 113.932 672.051 108.049 670.494 103.911C669.75 101.889 669.184 100.314 668.724 99.1711L668.299 97.9359C668.245 97.8424 668.204 97.744 668.175 97.6426Z" fill="#263238"/>
<path d="M618.332 76.3508C618.332 76.3508 617.393 75.9494 615.659 75.3318C613.186 74.503 610.571 74.0437 607.924 73.973C604 73.8557 600.095 74.499 596.49 75.8567C592.106 77.5474 588.358 80.2819 585.675 83.7466C582.974 87.2013 581.525 91.284 581.516 95.4655C581.552 98.8928 582.148 102.298 583.286 105.579C584.206 108.389 585.162 110.628 585.799 112.187C586.175 112.979 586.483 113.795 586.719 114.627C586.217 113.886 585.796 113.105 585.463 112.295C584.737 110.751 583.693 108.559 582.666 105.733C581.406 102.418 580.72 98.9573 580.631 95.4655C580.583 91.126 582.066 86.8786 584.879 83.2988C587.655 79.7076 591.556 76.8885 596.118 75.1774C599.835 73.8122 603.862 73.21 607.889 73.4172C610.594 73.5374 613.251 74.0868 615.73 75.0384C616.393 75.3051 617.032 75.6148 617.641 75.9648C617.893 76.0613 618.126 76.1915 618.332 76.3508Z" fill="#263238"/>
<path d="M619.146 136.767C619.428 136.618 619.724 136.489 620.031 136.381C620.917 136.033 621.835 135.749 622.774 135.532C624.266 135.148 625.805 134.92 627.359 134.853C629.472 134.754 631.586 135.032 633.571 135.671C638.103 137.061 642.262 141.091 644.315 146.479C645.3 149.371 645.3 152.45 644.315 155.342C643.223 158.48 641.267 161.338 638.616 163.664L638.722 163.247C641.076 168.883 643.643 174.997 646.298 181.374L646.457 181.76L646.015 181.899L641.961 183.072L633.111 185.651L632.669 185.774L632.527 185.388C630.102 178.996 627.447 173.036 625.447 167.184L625.836 167.447C622.376 167.196 619.077 166.063 616.349 164.189C613.881 162.531 611.858 160.423 610.42 158.013C609.122 155.875 608.476 153.483 608.544 151.065C608.625 148.594 609.333 146.169 610.615 143.964C611.897 141.759 613.722 139.829 615.96 138.311C616.881 137.659 617.914 137.138 619.022 136.767C618.022 137.285 617.053 137.847 616.119 138.45C613.661 140.264 611.778 142.598 610.65 145.229C609.682 147.212 609.229 149.358 609.323 151.512C609.418 153.667 610.059 155.776 611.199 157.689C612.613 160.007 614.588 162.03 616.986 163.618C619.589 165.399 622.734 166.473 626.031 166.706H626.332L626.421 166.937C628.368 172.681 631.04 178.687 633.501 185.11L632.916 184.863L641.766 182.285L645.802 181.096L645.519 181.621C642.882 175.244 640.333 169.114 637.996 163.479V163.247L638.209 163.062C640.782 160.832 642.701 158.094 643.802 155.079C644.741 152.313 644.741 149.369 643.802 146.603C641.873 141.415 637.89 137.478 633.571 136.088C631.66 135.445 629.619 135.146 627.571 135.208C626.042 135.239 624.522 135.42 623.04 135.748C620.403 136.32 619.164 136.845 619.146 136.767Z" fill="#263238"/>
<path d="M564.435 582.582L387.63 581.872C377.42 581.823 367.649 578.241 360.464 571.912C353.279 565.584 349.267 557.027 349.31 548.12L351.186 161.487C351.207 157.074 352.224 152.708 354.18 148.639C356.137 144.57 358.993 140.876 362.586 137.771C366.18 134.665 370.44 132.207 375.123 130.538C379.805 128.869 384.819 128.022 389.878 128.044L566.666 128.754C576.876 128.799 586.648 132.377 593.837 138.703C601.025 145.028 605.041 153.584 605.004 162.491L603.128 549.108C603.107 553.522 602.089 557.89 600.134 561.961C598.178 566.032 595.322 569.727 591.729 572.835C588.136 575.944 583.876 578.404 579.193 580.077C574.51 581.749 569.496 582.6 564.435 582.582Z" fill="#455A64"/>
<path d="M566.4 142.048H532.133C531.015 142.066 529.912 142.276 528.887 142.666C527.862 143.056 526.935 143.618 526.159 144.321C525.383 145.024 524.774 145.853 524.365 146.761C523.957 147.669 523.757 148.638 523.779 149.614V155.033C523.8 156.008 523.6 156.976 523.191 157.883C522.783 158.791 522.173 159.619 521.397 160.32C520.621 161.021 519.694 161.582 518.669 161.971C517.644 162.359 516.541 162.567 515.424 162.583L448.624 162.321C446.365 162.268 444.221 161.435 442.665 160.005C441.108 158.575 440.266 156.665 440.323 154.693V149.274C440.38 147.305 439.54 145.397 437.988 143.967C436.435 142.538 434.296 141.703 432.039 141.647H419.986L389.984 141.523C382.848 141.486 375.986 143.917 370.901 148.284C365.815 152.651 362.92 158.597 362.85 164.822L361.08 542.206C361.064 545.295 361.745 548.355 363.085 551.214C364.424 554.072 366.396 556.672 368.888 558.866C371.38 561.059 374.342 562.804 377.607 563.998C380.871 565.193 384.373 565.815 387.913 565.83L564.347 566.54C567.889 566.554 571.4 565.96 574.679 564.79C577.958 563.621 580.941 561.899 583.457 559.724C585.974 557.549 587.974 554.963 589.345 552.114C590.716 549.265 591.429 546.208 591.446 543.117L593.216 165.733C593.258 159.491 590.457 153.489 585.429 149.048C580.4 144.607 573.556 142.089 566.4 142.048Z" fill="white"/>
<path d="M542.664 516.19L411.472 515.696C410.109 515.696 409.012 514.399 409.029 512.824L409.171 482.886C409.171 481.342 410.286 480.014 411.649 480.014L542.841 480.539C543.596 480.653 544.272 481.017 544.727 481.555C545.182 482.093 545.382 482.763 545.284 483.426L545.16 513.334C545.16 514.924 544.027 516.205 542.664 516.19Z" fill="#2F515F"/>
<path d="M452.077 493.303C452.034 492.933 451.856 492.646 451.545 492.442C451.233 492.237 450.851 492.135 450.399 492.135C450.068 492.135 449.778 492.188 449.53 492.296C449.284 492.403 449.092 492.55 448.953 492.737C448.817 492.925 448.749 493.137 448.749 493.376C448.749 493.575 448.796 493.747 448.891 493.891C448.988 494.032 449.113 494.15 449.263 494.245C449.414 494.337 449.572 494.414 449.738 494.475C449.903 494.533 450.055 494.58 450.194 494.617L450.953 494.821C451.148 494.872 451.365 494.943 451.603 495.033C451.844 495.123 452.074 495.246 452.293 495.402C452.514 495.555 452.697 495.752 452.84 495.993C452.984 496.234 453.056 496.529 453.056 496.88C453.056 497.284 452.95 497.649 452.738 497.975C452.529 498.301 452.222 498.56 451.818 498.752C451.417 498.944 450.929 499.04 450.355 499.04C449.819 499.04 449.356 498.954 448.964 498.781C448.575 498.609 448.268 498.368 448.044 498.059C447.823 497.75 447.698 497.391 447.668 496.982H448.603C448.627 497.264 448.722 497.498 448.887 497.683C449.055 497.865 449.267 498.001 449.523 498.091C449.78 498.179 450.058 498.223 450.355 498.223C450.7 498.223 451.01 498.167 451.285 498.055C451.56 497.941 451.778 497.782 451.939 497.581C452.099 497.376 452.18 497.138 452.18 496.865C452.18 496.617 452.11 496.415 451.972 496.259C451.833 496.104 451.65 495.977 451.424 495.88C451.198 495.782 450.953 495.697 450.691 495.624L449.771 495.361C449.187 495.194 448.724 494.954 448.384 494.642C448.043 494.331 447.873 493.923 447.873 493.42C447.873 493.001 447.986 492.636 448.212 492.325C448.441 492.011 448.748 491.768 449.132 491.595C449.519 491.42 449.951 491.332 450.428 491.332C450.91 491.332 451.338 491.418 451.712 491.591C452.087 491.761 452.384 491.995 452.603 492.292C452.824 492.589 452.941 492.926 452.953 493.303H452.077ZM455.449 491.434V498.909H454.544V491.434H455.449ZM463.191 491.434V498.909H462.315L458.242 493.04H458.169V498.909H457.264V491.434H458.14L462.228 497.318H462.301V491.434H463.191ZM470.112 493.77C470.032 493.524 469.926 493.304 469.795 493.109C469.666 492.912 469.511 492.744 469.331 492.606C469.154 492.467 468.952 492.361 468.725 492.288C468.499 492.215 468.251 492.179 467.981 492.179C467.538 492.179 467.135 492.293 466.773 492.522C466.41 492.751 466.122 493.088 465.908 493.533C465.693 493.978 465.586 494.524 465.586 495.172C465.586 495.819 465.695 496.365 465.911 496.81C466.128 497.256 466.421 497.593 466.791 497.821C467.161 498.05 467.577 498.164 468.039 498.164C468.467 498.164 468.845 498.073 469.171 497.891C469.499 497.706 469.755 497.445 469.937 497.11C470.122 496.771 470.214 496.374 470.214 495.916L470.492 495.975H468.243V495.172H471.09V495.975C471.09 496.59 470.959 497.126 470.696 497.581C470.436 498.036 470.076 498.388 469.616 498.639C469.158 498.887 468.633 499.011 468.039 499.011C467.377 499.011 466.796 498.856 466.294 498.544C465.796 498.233 465.406 497.79 465.127 497.216C464.849 496.641 464.71 495.96 464.71 495.172C464.71 494.58 464.79 494.049 464.948 493.577C465.108 493.102 465.335 492.698 465.627 492.365C465.919 492.032 466.264 491.776 466.663 491.598C467.062 491.421 467.501 491.332 467.981 491.332C468.375 491.332 468.742 491.392 469.083 491.511C469.426 491.628 469.731 491.794 469.999 492.011C470.269 492.225 470.494 492.482 470.674 492.781C470.854 493.078 470.978 493.408 471.047 493.77H470.112ZM480.437 491.434H481.342V496.383C481.342 496.894 481.221 497.351 480.981 497.752C480.742 498.151 480.405 498.466 479.97 498.697C479.534 498.926 479.023 499.04 478.437 499.04C477.85 499.04 477.339 498.926 476.904 498.697C476.468 498.466 476.13 498.151 475.889 497.752C475.651 497.351 475.531 496.894 475.531 496.383V491.434H476.436V496.31C476.436 496.675 476.517 497 476.677 497.285C476.838 497.567 477.067 497.79 477.364 497.953C477.663 498.113 478.021 498.194 478.437 498.194C478.853 498.194 479.21 498.113 479.51 497.953C479.809 497.79 480.038 497.567 480.196 497.285C480.356 497 480.437 496.675 480.437 496.31V491.434ZM483.149 498.909V491.434H485.675C486.262 491.434 486.741 491.54 487.113 491.752C487.488 491.961 487.765 492.244 487.945 492.602C488.125 492.96 488.215 493.359 488.215 493.799C488.215 494.24 488.125 494.64 487.945 495C487.768 495.36 487.493 495.647 487.12 495.861C486.748 496.073 486.271 496.179 485.69 496.179H483.879V495.376H485.661C486.062 495.376 486.384 495.307 486.628 495.168C486.871 495.029 487.047 494.842 487.157 494.606C487.269 494.367 487.325 494.099 487.325 493.799C487.325 493.5 487.269 493.232 487.157 492.996C487.047 492.76 486.87 492.575 486.624 492.442C486.378 492.305 486.052 492.237 485.646 492.237H484.055V498.909H483.149Z" fill="#E8E8E3"/>
<path d="M437.64 252.985L392.116 252.804L392.078 260.092L437.602 260.272L437.64 252.985Z" fill="#2F515F"/>
<path opacity="0.1" d="M437.64 252.985L392.116 252.804L392.078 260.092L437.602 260.272L437.64 252.985Z" fill="black"/>
<path d="M571.091 297.729C571.448 297.698 571.799 297.625 572.135 297.513C572.625 297.346 573.051 297.062 573.364 296.693C573.677 296.325 573.865 295.886 573.905 295.429C573.905 292.974 573.905 289.392 573.905 284.791C573.905 282.49 573.905 279.912 573.905 277.071C573.905 276.376 573.905 275.65 573.905 274.925C574.02 274.22 573.845 273.503 573.409 272.902C573.166 272.613 572.849 272.378 572.483 272.215C572.118 272.051 571.714 271.964 571.303 271.96H568.542H542.965L394.923 271.481C394.544 271.476 394.169 271.55 393.83 271.698C393.491 271.846 393.198 272.063 392.976 272.331C392.548 272.935 392.385 273.653 392.515 274.353C392.515 275.897 392.515 277.441 392.515 278.985C392.515 282.073 392.515 285.161 392.515 288.249C392.515 289.793 392.515 291.337 392.515 292.881C392.442 293.6 392.442 294.324 392.515 295.043C392.608 295.351 392.781 295.637 393.021 295.878C393.26 296.119 393.559 296.308 393.896 296.432C394.245 296.554 394.618 296.611 394.993 296.602H404.003L443.314 296.788L509.866 297.143L554.736 297.451L566.931 297.575H570.099C570.825 297.575 571.179 297.575 571.179 297.575H570.099H566.931H554.736H509.866L443.314 297.39L404.003 297.251H394.993C394.498 297.268 394.003 297.195 393.542 297.035C393.076 296.861 392.661 296.597 392.33 296.263C391.999 295.928 391.76 295.532 391.63 295.105C391.528 294.699 391.492 294.283 391.524 293.869V292.727C391.524 291.183 391.524 289.639 391.524 288.095C391.524 285.007 391.524 281.919 391.524 278.831C391.524 277.287 391.524 275.743 391.524 274.199C391.49 273.788 391.49 273.375 391.524 272.964C391.591 272.509 391.792 272.078 392.108 271.713C392.414 271.34 392.818 271.038 393.286 270.831C393.755 270.624 394.274 270.518 394.799 270.524L542.841 271.234L568.418 271.389H571.179C571.666 271.389 572.145 271.492 572.576 271.688C573.008 271.884 573.378 272.168 573.657 272.516C574.156 273.187 574.358 273.994 574.224 274.786C574.224 275.511 574.224 276.237 574.224 276.932C574.224 279.742 574.224 282.32 574.224 284.652C574.224 289.284 574.1 292.835 574.064 295.305C574.021 295.78 573.823 296.235 573.494 296.615C573.165 296.995 572.718 297.285 572.206 297.451C571.871 297.633 571.485 297.729 571.091 297.729Z" fill="#E0E0E0"/>
<path d="M489.051 279.232H405.79V286.041H489.051V279.232Z" fill="#2F515F"/>
<path opacity="0.2" d="M489.051 279.232H405.79V286.041H489.051V279.232Z" fill="white"/>
<path d="M437.329 319.467L391.805 319.287L391.768 326.575L437.291 326.755L437.329 319.467Z" fill="#2F515F"/>
<path opacity="0.1" d="M437.329 319.467L391.805 319.287L391.768 326.575L437.291 326.755L437.329 319.467Z" fill="black"/>
<path d="M569.94 364.214C570.298 364.176 570.652 364.119 571.002 364.044C571.496 363.907 571.951 363.679 572.336 363.375C572.721 363.072 573.026 362.7 573.232 362.284C573.511 361.661 573.62 360.99 573.551 360.323C573.551 359.582 573.551 358.779 573.551 357.884C573.551 356.093 573.551 354.055 573.551 351.708V341.903C573.635 341.194 573.455 340.479 573.038 339.865C572.601 339.236 571.914 338.769 571.108 338.553C570.227 338.416 569.329 338.374 568.436 338.429H542.965L395.436 337.951C394.642 337.952 393.876 338.205 393.281 338.663C392.685 339.12 392.3 339.75 392.197 340.437C392.197 341.903 392.197 343.525 392.197 345.069C392.197 348.157 392.197 351.245 392.197 354.333C392.197 355.877 392.197 357.421 392.197 358.965C392.131 359.686 392.166 360.412 392.303 361.126C392.524 361.752 392.979 362.296 393.595 362.67C394.249 363.032 395.017 363.205 395.79 363.164H398.25H403.365L442.535 363.334L508.857 363.689L553.568 363.998L565.727 364.122H568.896H569.958H568.896H565.727H553.568H508.857L442.5 364.06L403.33 363.936H395.63C394.673 363.986 393.723 363.764 392.922 363.303C392.117 362.817 391.529 362.102 391.259 361.281C391.1 360.496 391.052 359.697 391.117 358.903C391.117 357.359 391.117 355.815 391.117 354.271C391.117 351.183 391.117 348.095 391.117 345.007C391.117 343.463 391.117 341.919 391.117 340.375C391.246 339.492 391.74 338.68 392.505 338.092C393.271 337.504 394.256 337.179 395.276 337.179L542.806 337.889L568.276 338.059C569.225 338.008 570.177 338.065 571.108 338.229C572.028 338.491 572.803 339.041 573.285 339.773C573.743 340.453 573.942 341.242 573.852 342.027C573.852 342.753 573.852 343.463 573.852 344.173C573.852 346.968 573.852 349.531 573.852 351.893C573.852 354.255 573.852 356.247 573.852 358.069C573.852 358.949 573.852 359.767 573.852 360.524C573.916 361.214 573.789 361.908 573.48 362.547C573.25 362.973 572.918 363.35 572.506 363.654C572.093 363.958 571.61 364.181 571.091 364.307C570.704 364.335 570.314 364.303 569.94 364.214Z" fill="#E0E0E0"/>
<path d="M436.986 388.837L391.462 388.657L391.424 395.945L436.948 396.125L436.986 388.837Z" fill="#2F515F"/>
<path opacity="0.1" d="M436.986 388.837L391.462 388.657L391.424 395.945L436.948 396.125L436.986 388.837Z" fill="black"/>
<path d="M569.586 433.555C569.944 433.518 570.299 433.462 570.648 433.385C571.14 433.249 571.594 433.023 571.978 432.722C572.363 432.421 572.669 432.053 572.878 431.641C573.156 431.017 573.265 430.346 573.197 429.68C573.197 428.923 573.197 428.136 573.197 427.225C573.197 425.449 573.197 423.396 573.197 421.049V411.244C573.281 410.535 573.101 409.82 572.684 409.206C572.237 408.589 571.553 408.129 570.754 407.909C569.873 407.767 568.976 407.72 568.082 407.77H542.611L395.082 407.292C394.288 407.293 393.522 407.546 392.927 408.004C392.331 408.461 391.946 409.091 391.843 409.778C391.843 411.322 391.843 412.866 391.843 414.41C391.843 417.498 391.843 420.586 391.843 423.674C391.843 425.218 391.843 426.762 391.843 428.306C391.777 429.022 391.812 429.743 391.949 430.452C392.161 431.082 392.618 431.628 393.241 431.996C393.891 432.366 394.662 432.539 395.436 432.49H403.135L442.305 432.675L508.627 433.03L553.337 433.339L565.497 433.463H568.666C569.374 433.463 569.728 433.463 569.728 433.463C569.728 433.463 569.374 433.463 568.666 433.463H565.497H553.337H508.627L442.305 433.293L403.135 433.154H395.436C394.478 433.21 393.525 432.987 392.728 432.521C391.922 432.034 391.334 431.319 391.064 430.498C390.905 429.714 390.858 428.915 390.922 428.12C390.922 426.576 390.922 425.032 390.922 423.488C390.922 420.4 390.922 417.312 390.922 414.224C390.922 412.68 390.922 411.136 390.922 409.515C391.047 408.634 391.537 407.822 392.3 407.234C393.063 406.645 394.046 406.32 395.064 406.319L542.594 407.029L568.064 407.199C569.012 407.148 569.964 407.205 570.896 407.369C571.815 407.631 572.591 408.181 573.073 408.913C573.531 409.593 573.729 410.382 573.639 411.167C573.639 411.893 573.639 412.619 573.639 413.313C573.639 416.108 573.639 418.671 573.639 421.033C573.639 423.396 573.639 425.387 573.639 427.209C573.639 428.089 573.639 428.908 573.639 429.664C573.707 430.355 573.58 431.049 573.268 431.687C573.038 432.113 572.706 432.491 572.293 432.795C571.881 433.098 571.398 433.321 570.878 433.447C570.463 433.571 570.02 433.608 569.586 433.555Z" fill="#E0E0E0"/>
<path d="M487.274 347.642L404.014 347.312L403.978 354.121L487.238 354.451L487.274 347.642Z" fill="#2F515F"/>
<path opacity="0.2" d="M487.274 347.642L404.014 347.312L403.978 354.121L487.238 354.451L487.274 347.642Z" fill="white"/>
<path d="M411.543 420.956C411.49 421.577 411.23 422.171 410.795 422.665C410.359 423.158 409.767 423.529 409.092 423.731C408.417 423.934 407.688 423.959 406.997 423.804C406.306 423.648 405.682 423.319 405.203 422.858C404.724 422.396 404.411 421.822 404.302 421.206C404.194 420.591 404.295 419.961 404.593 419.395C404.891 418.829 405.373 418.352 405.98 418.023C406.586 417.694 407.289 417.527 408.003 417.544C408.989 417.592 409.913 417.977 410.576 418.616C411.239 419.254 411.586 420.095 411.543 420.956Z" fill="#2F515F"/>
<path d="M422.818 421.002C422.852 421.438 422.784 421.875 422.617 422.286C422.45 422.697 422.188 423.074 421.847 423.393C421.506 423.712 421.093 423.967 420.634 424.141C420.175 424.315 419.68 424.405 419.18 424.405C418.68 424.405 418.185 424.315 417.726 424.141C417.268 423.967 416.855 423.712 416.514 423.393C416.173 423.074 415.91 422.697 415.743 422.286C415.576 421.875 415.508 421.438 415.543 421.002C415.508 420.567 415.576 420.13 415.743 419.719C415.91 419.308 416.173 418.931 416.514 418.612C416.855 418.293 417.268 418.038 417.726 417.864C418.185 417.69 418.68 417.6 419.18 417.6C419.68 417.6 420.175 417.69 420.634 417.864C421.093 418.038 421.506 418.293 421.847 418.612C422.188 418.931 422.45 419.308 422.617 419.719C422.784 420.13 422.852 420.567 422.818 421.002Z" fill="#2F515F"/>
<path d="M434.11 421.049C434.058 421.67 433.798 422.264 433.362 422.757C432.927 423.25 432.334 423.621 431.659 423.824C430.984 424.026 430.256 424.051 429.564 423.896C428.873 423.741 428.249 423.412 427.77 422.95C427.291 422.489 426.978 421.914 426.87 421.299C426.761 420.683 426.863 420.053 427.161 419.488C427.459 418.922 427.941 418.445 428.547 418.116C429.153 417.787 429.857 417.62 430.57 417.636C431.555 417.688 432.477 418.075 433.138 418.713C433.8 419.35 434.149 420.189 434.11 421.049Z" fill="#2F515F"/>
<path d="M445.385 421.095C445.333 421.716 445.073 422.31 444.637 422.804C444.201 423.297 443.609 423.668 442.934 423.87C442.259 424.073 441.531 424.098 440.839 423.943C440.148 423.787 439.524 423.458 439.045 422.997C438.566 422.535 438.253 421.961 438.145 421.345C438.036 420.73 438.138 420.1 438.436 419.534C438.734 418.968 439.216 418.491 439.822 418.162C440.428 417.833 441.131 417.666 441.845 417.683C442.83 417.735 443.752 418.121 444.413 418.759C445.075 419.397 445.424 420.236 445.385 421.095Z" fill="#2F515F"/>
<path d="M456.66 421.126C456.611 421.748 456.354 422.344 455.92 422.839C455.486 423.335 454.895 423.708 454.22 423.913C453.545 424.118 452.816 424.145 452.123 423.991C451.431 423.837 450.805 423.51 450.325 423.048C449.844 422.587 449.529 422.013 449.419 421.396C449.31 420.78 449.41 420.15 449.708 419.583C450.006 419.016 450.488 418.539 451.095 418.209C451.701 417.879 452.406 417.712 453.12 417.729C454.101 417.781 455.021 418.165 455.682 418.8C456.343 419.434 456.694 420.269 456.66 421.126Z" fill="#2F515F"/>
<path d="M467.953 421.172C467.904 421.791 467.65 422.384 467.22 422.878C466.79 423.372 466.205 423.746 465.534 423.954C464.864 424.161 464.139 424.193 463.449 424.046C462.758 423.898 462.132 423.578 461.647 423.124C461.163 422.671 460.841 422.103 460.721 421.492C460.601 420.88 460.689 420.252 460.973 419.684C461.258 419.115 461.726 418.632 462.322 418.293C462.917 417.954 463.613 417.774 464.324 417.775C465.321 417.808 466.263 418.183 466.943 418.82C467.623 419.457 467.986 420.302 467.953 421.172Z" fill="#2F515F"/>
<path d="M479.228 421.219C479.262 421.654 479.194 422.091 479.027 422.502C478.86 422.913 478.598 423.29 478.257 423.609C477.916 423.929 477.503 424.183 477.044 424.357C476.585 424.531 476.09 424.621 475.59 424.621C475.09 424.621 474.595 424.531 474.136 424.357C473.678 424.183 473.265 423.929 472.924 423.609C472.583 423.29 472.32 422.913 472.153 422.502C471.986 422.091 471.918 421.654 471.953 421.219C471.918 420.783 471.986 420.346 472.153 419.935C472.32 419.524 472.583 419.147 472.924 418.828C473.265 418.509 473.678 418.254 474.136 418.08C474.595 417.906 475.09 417.817 475.59 417.817C476.09 417.817 476.585 417.906 477.044 418.08C477.503 418.254 477.916 418.509 478.257 418.828C478.598 419.147 478.86 419.524 479.027 419.935C479.194 420.346 479.262 420.783 479.228 421.219Z" fill="#2F515F"/>
<path d="M490.502 421.265C490.454 421.884 490.199 422.477 489.77 422.971C489.34 423.465 488.754 423.839 488.084 424.046C487.414 424.254 486.689 424.286 485.999 424.138C485.308 423.991 484.682 423.671 484.197 423.217C483.712 422.763 483.39 422.196 483.271 421.585C483.151 420.973 483.239 420.345 483.523 419.776C483.807 419.208 484.276 418.724 484.872 418.385C485.467 418.046 486.163 417.867 486.874 417.868C487.871 417.9 488.813 418.276 489.493 418.913C490.173 419.549 490.536 420.395 490.502 421.265Z" fill="#2F515F"/>
<path d="M501.777 421.311C501.729 421.933 501.471 422.529 501.038 423.024C500.604 423.52 500.013 423.893 499.338 424.098C498.663 424.303 497.933 424.33 497.241 424.176C496.548 424.023 495.923 423.695 495.442 423.233C494.961 422.772 494.646 422.198 494.537 421.582C494.427 420.966 494.527 420.335 494.825 419.768C495.123 419.202 495.605 418.724 496.212 418.394C496.819 418.065 497.523 417.898 498.237 417.914C499.219 417.966 500.138 418.35 500.799 418.985C501.461 419.619 501.812 420.454 501.777 421.311Z" fill="#2F515F"/>
<g opacity="0.2">
<path d="M411.543 420.956C411.49 421.577 411.23 422.171 410.795 422.665C410.359 423.158 409.767 423.529 409.092 423.731C408.417 423.934 407.688 423.959 406.997 423.804C406.306 423.648 405.682 423.319 405.203 422.858C404.724 422.396 404.411 421.822 404.302 421.206C404.194 420.591 404.295 419.961 404.593 419.395C404.891 418.829 405.373 418.352 405.98 418.023C406.586 417.694 407.289 417.527 408.003 417.544C408.989 417.592 409.913 417.977 410.576 418.616C411.239 419.254 411.586 420.095 411.543 420.956Z" fill="white"/>
<path d="M422.818 421.002C422.853 421.438 422.784 421.875 422.617 422.286C422.45 422.697 422.188 423.074 421.847 423.393C421.506 423.712 421.093 423.967 420.634 424.141C420.175 424.315 419.681 424.405 419.18 424.405C418.68 424.405 418.185 424.315 417.727 424.141C417.268 423.967 416.855 423.712 416.514 423.393C416.173 423.074 415.91 422.697 415.743 422.286C415.576 421.875 415.508 421.438 415.543 421.002C415.508 420.567 415.576 420.13 415.743 419.719C415.91 419.308 416.173 418.931 416.514 418.612C416.855 418.293 417.268 418.038 417.727 417.864C418.185 417.69 418.68 417.6 419.18 417.6C419.681 417.6 420.175 417.69 420.634 417.864C421.093 418.038 421.506 418.293 421.847 418.612C422.188 418.931 422.45 419.308 422.617 419.719C422.784 420.13 422.853 420.567 422.818 421.002Z" fill="white"/>
<path d="M434.11 421.049C434.058 421.67 433.798 422.264 433.362 422.757C432.927 423.25 432.334 423.621 431.659 423.824C430.984 424.026 430.256 424.051 429.565 423.896C428.873 423.741 428.249 423.412 427.77 422.95C427.291 422.489 426.978 421.914 426.87 421.299C426.762 420.683 426.863 420.053 427.161 419.488C427.459 418.922 427.941 418.445 428.547 418.116C429.153 417.787 429.857 417.62 430.57 417.636C431.555 417.688 432.477 418.075 433.138 418.713C433.8 419.35 434.149 420.189 434.11 421.049Z" fill="white"/>
<path d="M445.385 421.095C445.333 421.716 445.073 422.31 444.637 422.804C444.201 423.297 443.609 423.668 442.934 423.87C442.259 424.073 441.531 424.098 440.839 423.943C440.148 423.787 439.524 423.458 439.045 422.997C438.566 422.535 438.253 421.961 438.145 421.345C438.036 420.73 438.138 420.1 438.436 419.534C438.734 418.968 439.216 418.491 439.822 418.162C440.428 417.833 441.132 417.666 441.845 417.683C442.83 417.735 443.752 418.121 444.413 418.759C445.075 419.397 445.424 420.236 445.385 421.095Z" fill="white"/>
<path d="M456.66 421.126C456.611 421.748 456.354 422.344 455.92 422.839C455.486 423.335 454.895 423.708 454.22 423.913C453.545 424.118 452.816 424.145 452.123 423.991C451.431 423.837 450.805 423.51 450.324 423.048C449.844 422.587 449.529 422.013 449.419 421.396C449.31 420.78 449.41 420.15 449.708 419.583C450.006 419.016 450.488 418.539 451.095 418.209C451.701 417.879 452.406 417.712 453.12 417.729C454.101 417.781 455.021 418.165 455.682 418.8C456.343 419.434 456.694 420.269 456.66 421.126Z" fill="white"/>
<path d="M467.953 421.172C467.904 421.791 467.65 422.384 467.22 422.878C466.79 423.372 466.205 423.746 465.534 423.954C464.864 424.161 464.14 424.193 463.449 424.046C462.758 423.898 462.132 423.578 461.647 423.124C461.163 422.671 460.841 422.103 460.721 421.492C460.601 420.881 460.689 420.252 460.973 419.684C461.258 419.115 461.726 418.632 462.322 418.293C462.917 417.954 463.613 417.774 464.324 417.775C465.321 417.808 466.263 418.183 466.943 418.82C467.623 419.457 467.986 420.303 467.953 421.172Z" fill="white"/>
<path d="M479.228 421.219C479.262 421.654 479.194 422.091 479.027 422.502C478.86 422.913 478.598 423.29 478.257 423.609C477.916 423.929 477.503 424.183 477.044 424.357C476.585 424.531 476.09 424.621 475.59 424.621C475.09 424.621 474.595 424.531 474.136 424.357C473.678 424.183 473.265 423.929 472.924 423.609C472.583 423.29 472.32 422.913 472.153 422.502C471.986 422.091 471.918 421.654 471.953 421.219C471.918 420.783 471.986 420.346 472.153 419.935C472.32 419.524 472.583 419.147 472.924 418.828C473.265 418.509 473.678 418.254 474.136 418.08C474.595 417.906 475.09 417.817 475.59 417.817C476.09 417.817 476.585 417.906 477.044 418.08C477.503 418.254 477.916 418.509 478.257 418.828C478.598 419.147 478.86 419.524 479.027 419.935C479.194 420.346 479.262 420.783 479.228 421.219Z" fill="white"/>
<path d="M490.502 421.265C490.454 421.884 490.199 422.477 489.77 422.971C489.34 423.465 488.754 423.839 488.084 424.046C487.414 424.254 486.689 424.286 485.999 424.138C485.308 423.991 484.682 423.671 484.197 423.217C483.712 422.763 483.39 422.196 483.271 421.585C483.151 420.973 483.239 420.345 483.523 419.776C483.807 419.208 484.276 418.724 484.872 418.385C485.467 418.046 486.163 417.867 486.874 417.868C487.871 417.9 488.813 418.276 489.493 418.913C490.173 419.549 490.536 420.395 490.502 421.265Z" fill="white"/>
<path d="M501.777 421.311C501.728 421.933 501.471 422.529 501.037 423.025C500.604 423.52 500.012 423.893 499.337 424.098C498.662 424.303 497.933 424.33 497.241 424.176C496.548 424.023 495.922 423.695 495.442 423.234C494.961 422.772 494.646 422.198 494.537 421.582C494.427 420.966 494.527 420.335 494.825 419.768C495.123 419.202 495.605 418.724 496.212 418.394C496.819 418.065 497.523 417.898 498.237 417.915C499.219 417.966 500.138 418.35 500.799 418.985C501.46 419.62 501.811 420.454 501.777 421.311Z" fill="white"/>
</g>
<path d="M485.759 198.419C486.988 197.947 488.032 197.17 488.759 196.184C489.486 195.199 489.864 194.048 489.848 192.876C489.893 192.115 489.761 191.353 489.458 190.637C489.156 189.921 488.689 189.267 488.087 188.713C487.485 188.16 486.76 187.719 485.957 187.418C485.153 187.117 484.288 186.962 483.414 186.962C482.539 186.962 481.674 187.117 480.87 187.418C480.067 187.719 479.342 188.16 478.74 188.713C478.138 189.267 477.672 189.921 477.369 190.637C477.066 191.353 476.934 192.115 476.98 192.876C476.953 194.06 477.328 195.224 478.059 196.222C478.79 197.219 479.843 198.005 481.086 198.481C471.174 199.778 471.617 209.166 471.617 209.166L495.051 209.258C495.051 209.258 495.6 199.701 485.759 198.419Z" fill="#2F515F"/>
<path opacity="0.1" d="M485.759 198.419C486.988 197.947 488.032 197.17 488.759 196.184C489.486 195.199 489.864 194.048 489.848 192.876C489.893 192.115 489.761 191.353 489.458 190.637C489.156 189.921 488.689 189.267 488.087 188.713C487.485 188.16 486.76 187.719 485.957 187.418C485.153 187.117 484.288 186.962 483.414 186.962C482.539 186.962 481.674 187.117 480.87 187.418C480.067 187.719 479.342 188.16 478.74 188.713C478.138 189.267 477.672 189.921 477.369 190.637C477.066 191.353 476.934 192.115 476.98 192.876C476.953 194.06 477.328 195.224 478.059 196.222C478.79 197.219 479.843 198.005 481.086 198.481C471.174 199.778 471.617 209.166 471.617 209.166L495.051 209.258C495.051 209.258 495.6 199.701 485.759 198.419Z" fill="black"/>
<path d="M523.84 215.313L440.314 214.982L440.269 223.69L523.794 224.021L523.84 215.313Z" fill="#2F515F"/>
<path opacity="0.2" d="M523.84 215.313L440.314 214.982L440.269 223.69L523.794 224.021L523.84 215.313Z" fill="white"/>
<path d="M216.772 260.442H215.94L213.533 260.596C212.23 260.665 210.935 260.814 209.656 261.044C208.829 261.146 208.007 261.285 207.196 261.461L204.453 262.125C199.783 263.375 195.377 265.278 191.408 267.761C186.163 271.081 181.784 275.333 178.558 280.236C176.661 283.062 175.152 286.073 174.062 289.207C172.916 292.612 172.256 296.128 172.097 299.675C171.992 301.538 172.027 303.405 172.203 305.264C172.203 306.206 172.504 307.148 172.646 308.105C172.765 309.07 172.972 310.025 173.265 310.962C174.857 317.157 178.086 322.943 182.696 327.857C187.306 332.77 193.168 336.676 199.815 339.263C204.626 341.074 209.783 342.085 215.02 342.243C220.428 342.503 225.842 341.826 230.95 340.251L232.507 339.742H232.72L232.897 339.834L255.216 349.716L254.561 350.21C252.172 343.756 249.871 337.503 247.641 331.497V331.265L247.835 331.095C253.25 326.338 257.269 320.512 259.553 314.111C261.621 308.26 262.225 302.089 261.323 296.016C260.521 290.619 258.531 285.408 255.464 280.668C252.82 276.597 249.41 272.944 245.375 269.86C242.047 267.42 238.362 265.374 234.419 263.777C231.435 262.654 228.327 261.801 225.144 261.229L221.604 260.72L219.037 260.55L217.48 260.457H216.949C217.125 260.44 217.303 260.44 217.48 260.457H219.055L221.622 260.55L225.162 260.998C228.384 261.527 231.534 262.35 234.56 263.453C238.572 265.031 242.322 267.072 245.711 269.521C249.82 272.59 253.303 276.245 256.013 280.329C259.167 285.119 261.217 290.401 262.048 295.877C263.025 302.043 262.464 308.321 260.402 314.281C258.104 320.815 254.022 326.765 248.508 331.62L248.614 331.219C250.844 337.225 253.163 343.478 255.57 349.917L255.907 350.859L254.898 350.411L232.578 340.545H232.967L231.374 341.054C226.169 342.652 220.654 343.345 215.143 343.092C209.794 342.915 204.529 341.867 199.621 340.004C190.257 336.506 182.466 330.426 177.442 322.696C175.131 319.126 173.442 315.275 172.433 311.271C172.157 310.31 171.95 309.335 171.814 308.352C171.672 307.38 171.442 306.422 171.389 305.465C170.91 299.971 171.576 294.447 173.354 289.16C174.472 285.984 176.023 282.936 177.973 280.082C181.276 275.134 185.747 270.855 191.089 267.529C195.124 265.04 199.604 263.151 204.346 261.94L207.125 261.322C207.943 261.157 208.77 261.028 209.603 260.936C210.895 260.727 212.202 260.604 213.515 260.566L215.94 260.488C216.216 260.456 216.494 260.44 216.772 260.442Z" fill="#2F515F"/>
<path d="M226.861 296.448H223.586L216.506 287.771V282.073C216.506 282.073 211.444 281.796 212.046 289.253C212.648 296.711 212.046 294.811 212.046 294.811C212.046 294.811 201.302 294.811 200.417 295.661C199.532 296.51 199.479 305.558 199.355 310.607C199.287 311.824 199.688 313.026 200.493 314.022C201.297 315.017 202.461 315.75 203.798 316.103C204.173 316.194 204.559 316.241 204.948 316.242C207.639 316.242 221.321 314.343 221.321 314.343H226.967L226.861 296.448Z" fill="#2F515F"/>
<path d="M236.224 294.92L234.206 314.436H228.613V295.321L236.224 294.92Z" fill="#2F515F"/>
<path d="M302.935 692.237V679.036L275.801 678.866L275.571 698.83L277.253 698.938C284.74 699.355 315.343 699.972 320.37 698.614C325.963 697.101 302.935 692.237 302.935 692.237Z" fill="#2F515F"/>
<path d="M321.007 697.379C321.007 697.595 310.847 697.78 298.333 697.78C285.82 697.78 275.66 697.595 275.66 697.379C275.66 697.162 285.82 696.977 298.333 696.977C310.847 696.977 321.007 697.162 321.007 697.379Z" fill="#263238"/>
<path d="M303.413 694.939C303.183 694.831 303.413 694.136 303.962 693.395C304.511 692.654 305.254 692.345 305.431 692.5C305.608 692.654 305.236 693.241 304.705 693.874C304.174 694.507 303.643 695.047 303.413 694.939Z" fill="#263238"/>
<path d="M305.148 695.804C304.9 695.804 305.024 694.939 305.555 694.121C306.086 693.302 306.794 692.808 306.989 692.932C307.183 693.055 306.865 693.75 306.369 694.476C305.874 695.201 305.378 695.881 305.148 695.804Z" fill="#263238"/>
<path d="M283.837 697.317C283.731 697.317 283.324 697.039 282.74 696.452C282.027 695.698 281.232 695.005 280.368 694.383C279.518 693.791 278.505 693.402 277.43 693.256C276.598 693.163 276.067 693.256 276.014 693.163C275.961 693.071 276.474 692.746 277.447 692.685C278.732 692.661 279.985 693.033 280.987 693.735C281.926 694.402 282.718 695.213 283.324 696.128C283.731 696.807 283.943 697.255 283.837 697.317Z" fill="#263238"/>
<path d="M303.502 692.453C303.626 692.639 303.166 693.102 302.387 693.349C301.608 693.596 300.918 693.503 300.882 693.349C300.847 693.194 301.396 692.87 302.068 692.654C302.741 692.438 303.36 692.268 303.502 692.453Z" fill="#263238"/>
<path d="M303.077 691.172C303.077 691.403 302.369 691.589 301.449 691.604C300.528 691.619 299.803 691.434 299.82 691.218C299.838 691.002 300.564 690.801 301.449 690.786C302.334 690.77 303.042 690.955 303.077 691.172Z" fill="#263238"/>
<path d="M369.753 692.237V679.036L342.619 678.866L342.389 698.629L344.07 698.737C351.557 699.154 382.178 699.972 387.188 698.614C392.781 697.101 369.753 692.237 369.753 692.237Z" fill="#2F515F"/>
<path d="M387.825 697.409C387.825 697.626 377.683 697.811 365.151 697.811C352.619 697.811 342.495 697.626 342.495 697.409C342.495 697.193 352.637 697.008 365.151 697.008C377.665 697.008 387.825 697.193 387.825 697.409Z" fill="#263238"/>
<path d="M370.231 694.939C370.019 694.831 370.231 694.136 370.78 693.395C371.328 692.654 372.072 692.345 372.249 692.5C372.426 692.654 372.054 693.241 371.523 693.874C370.992 694.507 370.461 695.047 370.231 694.939Z" fill="#263238"/>
<path d="M371.966 695.804C371.735 695.804 371.842 694.939 372.39 694.121C372.939 693.302 373.629 692.808 373.824 692.932C374.019 693.055 373.682 693.75 373.187 694.476C372.691 695.201 372.213 695.881 371.966 695.804Z" fill="#263238"/>
<path d="M350.655 697.317C350.548 697.317 350.159 697.039 349.557 696.452C348.844 695.698 348.05 695.005 347.185 694.383C346.335 693.791 345.322 693.402 344.247 693.256C343.433 693.163 342.884 693.256 342.831 693.163C342.778 693.071 343.291 692.746 344.265 692.685C345.55 692.661 346.803 693.033 347.805 693.735C348.749 694.398 349.541 695.21 350.141 696.128C350.548 696.807 350.761 697.255 350.655 697.317Z" fill="#263238"/>
<path d="M370.319 692.453C370.443 692.639 369.983 693.102 369.204 693.349C368.426 693.596 367.735 693.503 367.7 693.349C367.664 693.194 368.213 692.87 368.886 692.654C369.558 692.438 370.178 692.268 370.319 692.453Z" fill="#263238"/>
<path d="M369.93 691.172C369.93 691.403 369.222 691.589 368.302 691.604C367.381 691.619 366.673 691.434 366.691 691.218C366.709 691.002 367.417 690.801 368.302 690.786C369.187 690.77 369.93 690.955 369.93 691.172Z" fill="#263238"/>
<path d="M469.723 300.215C469.015 299.582 467.262 299.891 467.262 299.891C467.438 299.002 467.438 298.094 467.262 297.205C466.944 296.34 464.713 296.51 464.713 296.51C464.611 295.782 464.611 295.045 464.713 294.317C464.731 294.156 464.692 293.994 464.6 293.853C464.508 293.712 464.368 293.599 464.2 293.53C463.145 293.155 462.012 292.976 460.873 293.005C459.51 292.156 465.032 285.408 467.085 283.247C469.139 281.085 468.767 279.402 466.944 279.402C465.687 279.402 459.244 285.887 457.262 288.064C455.279 290.241 450.023 296.294 449.846 291.461C449.668 286.628 447.438 282.984 446.04 282.367C444.642 281.749 443.155 283.201 443.916 284.544C444.585 286.07 445.002 287.671 445.155 289.299C445.347 290.596 445.281 291.913 444.96 293.19C444.373 295.567 443.575 297.901 442.571 300.169H442.429C442.429 300.169 403.808 332.485 401.011 334.786C398.515 336.855 348.318 332.331 338.247 331.404C334.825 330.967 331.369 330.761 327.91 330.787C323.538 330.956 322.76 331.497 318.405 331.543C307.409 331.65 296.438 332.491 285.59 334.06C280.677 334.788 276.088 336.68 272.324 339.528C268.56 342.376 265.765 346.071 264.243 350.21C254.101 377.848 231.127 443.267 227.073 480.014C224.01 484.859 221.245 489.843 218.79 494.945C215.94 501.707 216.63 501.939 217.586 502.093C220.17 502.51 223.109 490.374 224.206 493.308C225.303 496.242 218.63 507.775 221.339 508.115C224.879 508.547 227.693 495.763 228.029 494.744C228.365 493.725 230.118 494.049 229.799 495.006C229.286 496.365 224.312 510.771 227.781 511.234C229.693 511.481 229.905 508.439 229.905 508.439C229.905 508.439 233.445 494.651 235.056 494.929C236.667 495.207 234.95 503.344 234.136 506.062C233.321 508.779 234.454 510.153 236.118 509.489C237.251 509.026 239.959 500.766 240.702 498.079C241.446 495.392 243.304 487.95 245.8 492.258C248.296 496.566 252.083 499.067 253.641 499.129C253.992 499.094 254.323 498.968 254.591 498.767C254.859 498.566 255.052 498.3 255.145 498.003C255.239 497.706 255.228 497.391 255.114 497.099C255.001 496.807 254.79 496.552 254.508 496.365C253.169 495.224 252.019 493.925 251.092 492.505C250.267 491.4 249.668 490.177 249.322 488.892C248.609 486.331 248.194 483.714 248.083 481.08L247.8 479.536C251.765 462.413 263.181 412.155 279.66 380.056L286.421 392.192L289.36 401.178L271.341 439.978L348.194 439.098L336.725 400.591L350.655 360.447C365.717 360.74 404.392 361.234 410.835 358.687C418.941 355.599 460.873 309.402 460.873 309.402C463.606 307.55 466.223 305.57 468.714 303.473C468.714 303.473 471.263 301.605 469.723 300.215Z" fill="#FFBE9D"/>
<path d="M267.96 411.306C270.19 404.667 281.642 371.842 281.642 371.842C281.642 371.842 287.271 398.599 285.784 401.826C284.417 404.589 282.801 407.253 280.952 409.793C267.96 427.04 269.659 435.671 269.659 435.671L348.159 433.586C348.336 424.013 341.84 401.749 340.495 398.198C339.15 394.646 343.628 383.02 343.628 383.02C343.628 383.02 352.478 375.161 352.159 371.116C351.991 367.482 351.476 363.867 350.619 360.308L398.409 361.852L396.905 333.597L328.264 327.606C325.875 333.489 304.263 330.601 304.263 330.601C280.934 331.281 279.483 335.017 269.783 341.595C260.084 348.172 244.03 404.621 244.03 404.621L267.96 411.306Z" fill="#2F515F"/>
<path d="M314.37 404.621C313.009 404.833 311.624 404.895 310.246 404.806C307.679 404.806 304.157 404.652 300.281 404.312C296.404 403.972 292.9 403.494 290.404 403.061C289.028 402.907 287.679 402.606 286.386 402.166C287.77 402.166 289.151 402.28 290.51 402.505C293.024 402.783 296.51 403.169 300.369 403.509C304.228 403.849 307.732 404.08 310.263 404.235C311.643 404.25 313.018 404.379 314.37 404.621Z" fill="#263238"/>
<path d="M319.75 398.8C318.39 399.381 316.951 399.812 315.467 400.081C308.405 401.7 301.12 402.453 293.82 402.32C292.309 402.363 290.799 402.238 289.324 401.95C290.815 401.785 292.318 401.718 293.82 401.749C296.599 401.672 300.422 401.502 304.635 401.069C308.847 400.637 312.6 400.02 315.255 399.525C316.729 399.182 318.233 398.939 319.75 398.8Z" fill="#263238"/>
<path d="M346.159 372.83C346.123 374.007 345.939 375.177 345.61 376.319C345.15 378.465 344.442 381.399 343.539 384.61C342.637 387.822 341.769 390.786 340.99 392.794C340.677 393.943 340.214 395.056 339.61 396.113C339.708 394.94 339.958 393.78 340.353 392.655C341.026 390.246 341.787 387.467 342.637 384.425C343.486 381.383 344.3 378.604 344.973 376.196C345.213 375.036 345.611 373.906 346.159 372.83Z" fill="#263238"/>
<path d="M268.792 407.369C264.697 406.817 260.656 405.997 256.703 404.914C252.664 404.09 248.7 403.006 244.844 401.672C248.937 402.232 252.977 403.053 256.933 404.127C260.973 404.948 264.938 406.031 268.792 407.369Z" fill="#263238"/>
<path d="M351.469 359.968C350.801 360.068 350.119 360.068 349.451 359.968C347.602 359.803 345.787 359.424 344.053 358.841C341.157 357.892 338.521 356.425 336.314 354.534C334.107 352.644 332.378 350.371 331.238 347.863C329.977 345.104 329.439 342.134 329.662 339.171C329.741 336.726 330.579 334.346 332.087 332.284C333.148 330.895 334.732 329.874 336.565 329.397C337.055 329.279 337.562 329.222 338.07 329.227C338.424 329.227 338.601 329.227 338.601 329.227C338.601 329.227 337.858 329.227 336.672 329.644C334.99 330.186 333.563 331.202 332.618 332.531C330.211 335.835 329.539 341.873 332.105 347.508C333.3 350.165 335.17 352.551 337.574 354.487C339.545 356.071 341.814 357.345 344.283 358.254C346.599 359.053 349.009 359.628 351.469 359.968Z" fill="#263238"/>
<path d="M392.728 361.296C392.285 356.561 392.143 351.809 392.303 347.06C392.164 342.316 392.33 337.569 392.798 332.84C393.241 337.57 393.383 342.317 393.223 347.06C393.372 351.81 393.207 356.563 392.728 361.296Z" fill="#263238"/>
<path d="M327.804 329.335C327.999 325.892 328.406 322.001 328.406 322.001C328.406 322.001 338.176 321.059 338.76 312.259C339.344 303.458 338.76 283.154 338.76 283.154L321.06 275.249L301.413 288.728L304.44 332.732L322.459 333.736C323.836 333.769 325.172 333.324 326.174 332.499C327.176 331.674 327.762 330.537 327.804 329.335Z" fill="#FFBE9D"/>
<path d="M329.556 305.295C329.556 305.295 329.556 305.465 329.397 305.666C329.265 305.811 329.095 305.927 328.901 306.002C328.706 306.077 328.494 306.11 328.282 306.098C327.149 306.098 326.052 304.956 325.662 303.628C325.477 302.984 325.477 302.31 325.662 301.667C325.699 301.386 325.815 301.117 326 300.885C326.186 300.654 326.435 300.466 326.724 300.339C326.962 300.253 327.23 300.253 327.468 300.339C327.644 300.415 327.787 300.54 327.875 300.694C327.999 300.957 327.875 301.126 327.875 301.111C327.875 301.096 327.875 300.957 327.698 300.802C327.605 300.692 327.469 300.615 327.316 300.586C327.162 300.558 327.002 300.58 326.866 300.648C326.649 300.762 326.468 300.923 326.342 301.115C326.215 301.306 326.145 301.523 326.14 301.744C325.991 302.318 325.991 302.914 326.14 303.489C326.494 304.693 327.45 305.666 328.3 305.758C328.466 305.778 328.635 305.768 328.796 305.728C328.958 305.688 329.108 305.62 329.238 305.527C329.45 305.403 329.521 305.28 329.556 305.295Z" fill="#EB996E"/>
<path d="M344.831 278.399C343.469 274.353 338.53 272.346 334.034 271.235C327.185 269.536 319.786 268.795 313.095 270.941C306.405 273.087 298.369 276.855 298.369 283.293C294.422 283.015 292.156 286.026 290.599 289.763C289.603 292.039 289.006 294.433 288.829 296.865C288.333 305.295 285.625 316.937 279.359 323.113C275.819 326.556 270.916 328.934 268.898 333.226C267.128 336.947 268.049 341.363 266.403 345.13C264.934 348.45 261.695 350.812 259.323 353.7C256.906 356.975 255.484 360.733 255.19 364.619C254.896 368.506 255.74 372.394 257.641 375.918C259.557 379.351 262.253 382.409 265.567 384.904C268.881 387.399 272.743 389.28 276.917 390.431C285.184 392.626 294.001 392.701 302.316 390.647C308.557 389.346 314.378 386.828 319.343 383.283C324.424 379.664 327.913 374.623 329.22 369.016C330.477 362.717 328.459 356.309 326.954 350.04C322.246 330.231 323.591 329.196 329.539 310.807C329.68 310.483 329.751 310.143 329.857 309.819C329.963 309.495 330.017 309.34 330.087 309.093C330.256 308.367 330.345 307.627 330.353 306.885C329.484 307.167 328.541 307.227 327.635 307.057C326.729 306.888 325.897 306.496 325.238 305.928C324.576 305.323 324.115 304.573 323.903 303.757C323.691 302.942 323.737 302.091 324.034 301.296C324.452 300.427 325.074 299.644 325.861 298.997C326.647 298.351 327.581 297.856 328.601 297.544C330.565 296.834 332.672 296.463 334.601 295.676C338.69 293.978 341.522 290.457 343.451 286.767C345.037 284.21 345.527 281.243 344.831 278.399Z" fill="#263238"/>
<path d="M330.264 305.712C330.638 306.194 330.947 306.712 331.185 307.256C331.716 308.229 332.424 309.603 333.203 311.193L333.344 311.487H332.972L331.202 311.626C329.981 311.626 328.955 311.826 327.751 311.811C327.646 311.79 327.549 311.747 327.469 311.685C327.388 311.623 327.327 311.544 327.291 311.456C327.238 311.315 327.238 311.164 327.291 311.023C327.332 310.815 327.385 310.609 327.45 310.406L327.769 309.31C327.929 308.578 328.178 307.864 328.512 307.179C328.479 307.924 328.354 308.665 328.14 309.387L327.893 310.483C327.804 310.854 327.645 311.425 327.893 311.379C328.778 311.379 330.034 311.209 331.202 311.147L332.972 311.008L332.742 311.348C331.981 309.804 331.344 308.352 330.972 307.349C330.646 306.836 330.408 306.285 330.264 305.712Z" fill="#2F515F"/>
<path d="M269.66 435.671L348.159 433.586L382.32 549.911L376.037 683.344H334.53L339.61 552.752L309.254 471.769L313.927 688.516L271.978 689.056L267.571 485.326C267.376 479.659 265.252 466.89 266.049 461.27L269.66 435.671Z" fill="#263238"/>
<path d="M319.697 473.421C318.413 473.492 317.123 473.424 315.857 473.221C313.485 472.974 310.246 472.541 306.688 471.924C303.13 471.306 299.944 470.596 297.643 470.025C296.413 469.789 295.223 469.415 294.103 468.913C294.103 468.681 299.873 469.886 306.953 471.136C314.033 472.387 319.733 473.19 319.697 473.421Z" fill="#455A64"/>
<path d="M375.612 676.025C375.612 676.241 366.213 676.426 354.619 676.426C343.026 676.426 333.61 676.241 333.61 676.025C333.61 675.809 343.008 675.624 354.619 675.624C366.231 675.624 375.612 675.793 375.612 676.025Z" fill="#455A64"/>
<path d="M313.555 682.88C313.555 683.112 304.422 683.282 293.165 683.282C281.908 683.282 272.792 683.112 272.792 682.88C272.792 682.649 281.926 682.479 293.165 682.479C304.405 682.479 313.555 682.664 313.555 682.88Z" fill="#455A64"/>
<path d="M308.139 682.325C307.891 682.325 306.794 634.97 305.679 576.561C304.564 518.151 303.909 470.766 304.139 470.766C304.369 470.766 305.502 518.105 306.599 576.545C307.697 634.985 308.405 682.325 308.139 682.325Z" fill="#455A64"/>
<path d="M370.036 676.025C370.017 675.814 370.017 675.603 370.036 675.392V673.539C370.036 671.872 370.178 669.478 370.284 666.437C370.532 660.261 370.886 651.29 371.328 640.297C372.284 618.187 373.629 587.708 375.098 554.064C375.098 553.74 375.098 553.431 375.098 553.153V553.262C365.806 520.838 357.398 491.409 351.292 470.117L344.212 444.935C343.398 441.985 342.778 439.685 342.336 438.079C342.123 437.323 341.982 436.736 341.858 436.288C341.789 436.087 341.747 435.88 341.734 435.671C341.826 435.865 341.897 436.067 341.946 436.273C342.088 436.705 342.265 437.292 342.513 438.033C342.991 439.577 343.681 441.924 344.566 444.857C346.336 450.817 348.832 459.402 351.947 469.978C358.106 491.255 366.602 520.606 376.019 553.076V553.184C376.019 553.462 376.019 553.786 376.019 554.095C374.444 587.739 373.01 618.202 371.966 640.312C371.417 651.321 370.957 660.23 370.638 666.437C370.461 669.525 370.319 671.872 370.231 673.539C370.231 674.327 370.125 674.944 370.107 675.392C370.11 675.605 370.086 675.817 370.036 676.025Z" fill="#455A64"/>
<path d="M356.496 550.436C353.514 551.291 350.443 551.886 347.327 552.212C343.504 552.783 340.247 553.184 338.778 553.246V552.937C339.256 553.061 339.504 553.138 339.504 553.2C339.504 553.262 339.203 553.2 338.707 553.2H337.645L338.707 552.922C340.088 552.567 343.345 551.98 347.168 551.378C350.234 550.798 353.359 550.482 356.496 550.436Z" fill="#455A64"/>
<path d="M355.77 554.867C353.009 554.978 350.243 554.869 347.504 554.543C344.739 554.494 341.985 554.23 339.274 553.756C344.805 553.362 350.373 553.737 355.77 554.867Z" fill="#455A64"/>
<path opacity="0.2" d="M269.323 438.126C270.253 439.167 271.424 440.026 272.76 440.645C274.096 441.265 275.566 441.633 277.076 441.723C280.237 442.05 283.435 441.998 286.581 441.569C306.847 439.608 328.317 437.801 348.159 433.586C322.476 434.837 295.342 434.42 269.66 435.671L269.394 437.585" fill="black"/>
<g opacity="0.2">
<path d="M295.785 469.7L310.263 518.707L309.254 471.769L295.785 469.7Z" fill="black"/>
</g>
</svg>
