<svg width="132" height="123" viewBox="0 0 132 123" fill="none" xmlns="http://www.w3.org/2000/svg">
<path d="M47.8061 57.5691V38.4273C47.8061 37.2861 48.2388 36.3123 49.1041 35.506C49.9658 34.6997 51.0144 34.2965 52.2501 34.2965C53.4858 34.2965 54.5344 34.6997 55.3961 35.506C56.2614 36.3123 56.6941 37.2861 56.6941 38.4273V57.5691C56.6941 58.7103 56.2614 59.6841 55.3961 60.4904C54.5308 61.2967 53.4821 61.6999 52.2501 61.6999C51.0181 61.6999 49.9694 61.2967 49.1041 60.4904C48.2388 59.6841 47.8061 58.7103 47.8061 57.5691ZM71.7146 64.288V17.9375C71.7146 16.7895 72.1454 15.8123 73.0071 15.006C73.8724 14.1997 74.9211 13.7965 76.1531 13.7965C77.3888 13.7965 78.4374 14.1997 79.2991 15.006C80.1644 15.8123 80.5971 16.7895 80.5971 17.9375V64.288C80.5971 65.6683 80.1424 66.7036 79.2331 67.3938C78.3201 68.0839 77.2989 68.429 76.1696 68.429C75.0403 68.429 74.0136 68.0839 73.0896 67.3938C72.1656 66.7036 71.7073 65.6683 71.7146 64.288ZM23.6941 75.2658V58.9375C23.6941 57.7895 24.1249 56.8123 24.9866 56.006C25.8519 55.1997 26.9024 54.7965 28.1381 54.7965C29.3738 54.7965 30.4224 55.1997 31.2841 56.006C32.1458 56.8123 32.5766 57.7895 32.5766 58.9375V75.2709C32.5766 76.6512 32.1219 77.6848 31.2126 78.3715C30.3033 79.0617 29.2821 79.4068 28.1491 79.4068C27.0198 79.4068 25.9931 79.0617 25.0691 78.3715C24.1524 77.6848 23.6941 76.6512 23.6941 75.2709M29.6616 105.319C28.4333 105.319 27.5844 104.798 27.1151 103.756C26.6458 102.717 26.8584 101.779 27.7531 100.942L49.2471 80.9186C50.0428 80.1738 51.0236 79.7587 52.1896 79.6733C53.3556 79.5878 54.3914 79.9176 55.2971 80.6624L71.7146 93.808L108.856 59.1938H99.0001C98.2191 59.1938 97.5664 58.9478 97.0421 58.4558C96.5178 57.9638 96.2538 57.3539 96.2501 56.6261C96.2464 55.8984 96.5104 55.2902 97.0421 54.8016C97.5738 54.313 98.2264 54.0688 99.0001 54.0688H113.806C115.067 54.0688 116.123 54.4651 116.974 55.2578C117.825 56.0504 118.25 57.0344 118.25 58.2098V72.0063C118.25 72.734 117.986 73.3422 117.458 73.8308C116.93 74.3193 116.276 74.5653 115.495 74.5688C114.714 74.5722 114.061 74.3262 113.537 73.8308C113.012 73.3353 112.75 72.7272 112.75 72.0063V62.8223L74.7781 98.2053C73.9824 98.9467 73.0016 99.3601 71.8356 99.4455C70.6696 99.5309 69.6338 99.2012 68.7281 98.4564L52.3106 85.3108L31.6471 104.571C31.4124 104.776 31.1173 104.951 30.7616 105.098C30.4059 105.245 30.0393 105.319 29.6616 105.319Z" fill="#235274"/>
</svg>
