<svg width="132" height="123" viewBox="0 0 132 123" fill="none" xmlns="http://www.w3.org/2000/svg">
<path d="M112.5 26.25C112.5 23.5315 111.341 20.9244 109.278 19.0022C107.215 17.0799 104.417 16 101.5 16H46.5C43.5826 16 40.7847 17.0799 38.7218 19.0022C36.6589 20.9244 35.5 23.5315 35.5 26.25V36.5C35.5 39.2185 36.6589 41.8256 38.7218 43.7478C40.7847 45.6701 43.5826 46.75 46.5 46.75H101.5C104.417 46.75 107.215 45.6701 109.278 43.7478C111.341 41.8256 112.5 39.2185 112.5 36.5V26.25Z" stroke="#235274" stroke-width="2" stroke-linecap="round" stroke-linejoin="round"/>
<path d="M35.5 31.375H30C27.0826 31.375 24.2847 32.4549 22.2218 34.3772C20.1589 36.2994 19 38.9065 19 41.625C19 48.4212 21.8973 54.939 27.0546 59.7446C32.2118 64.5502 39.2065 67.25 46.5 67.25H74V77.5M85 82.625C85 81.2658 84.4205 79.9622 83.3891 79.0011C82.3576 78.04 80.9587 77.5 79.5 77.5H68.5C67.0413 77.5 65.6424 78.04 64.6109 79.0011C63.5795 79.9622 63 81.2658 63 82.625V103.125C63 104.484 63.5795 105.788 64.6109 106.749C65.6424 107.71 67.0413 108.25 68.5 108.25H79.5C80.9587 108.25 82.3576 107.71 83.3891 106.749C84.4205 105.788 85 104.484 85 103.125V82.625Z" stroke="#235274" stroke-width="2" stroke-linecap="round" stroke-linejoin="round"/>
</svg>
