<svg width="132" height="123" viewBox="0 0 132 123" fill="none" xmlns="http://www.w3.org/2000/svg">
<path d="M82.5 20.5L115.5 30.75V56.375H99V97.375C99 98.7342 98.4205 100.038 97.3891 100.999C96.3576 101.96 94.9587 102.5 93.5 102.5H38.5C37.0413 102.5 35.6424 101.96 34.6109 100.999C33.5795 100.038 33 98.7342 33 97.375V56.375H16.5V30.75L49.5 20.5C49.5 24.5777 51.2384 28.4884 54.3327 31.3718C57.4271 34.2551 61.6239 35.875 66 35.875C70.3761 35.875 74.5729 34.2551 77.6673 31.3718C80.7616 28.4884 82.5 24.5777 82.5 20.5Z" stroke="#235274" stroke-width="2" stroke-linecap="round" stroke-linejoin="round"/>
</svg>
