<svg width="130" height="108" viewBox="0 0 130 108" fill="none" xmlns="http://www.w3.org/2000/svg">
<path d="M42.0079 7.33918C36.1249 7.34403 30.4211 10.075 28.1416 15.0011L6.89723 83.8019C3.67947 103.743 27.4738 102.521 41.9254 97.5964C62.5989 90.5519 88.066 91.4343 108.765 95.854L110.402 92.2221C108.529 91.6657 106.509 90.959 104.752 90.5264C104.873 89.6059 104.995 88.687 105.117 87.7686L110.967 88.6372L111.788 84.8193L105.638 83.9063C105.794 82.7678 105.952 81.6295 106.113 80.4915L111.733 81.1829L112.417 77.3468C110.5 77.1106 108.583 76.8747 106.666 76.6391C106.782 75.8449 106.897 75.0508 107.016 74.2576C108.949 74.488 110.883 74.7181 112.817 74.948L113.478 71.109L107.597 70.4095C107.714 69.6516 107.924 68.3026 108.044 67.5456L113.828 68.0835L114.347 64.3773C112.451 64.2013 110.555 64.0249 108.659 63.8483C108.858 62.6318 109.146 61.4896 109.352 60.2744C111.299 60.5108 113.247 60.7476 115.195 60.9848L115.781 57.3695C113.831 57.1319 111.88 56.8947 109.929 56.6578C110.13 55.5156 110.247 54.5213 110.455 53.3795C112.251 53.6462 114.047 53.9127 115.843 54.1789L116.664 50.3609L111.166 49.5455C111.353 48.5591 111.54 47.5732 111.732 46.5868C113.504 46.9398 115.275 47.2929 117.047 47.6462L118.137 43.875L112.499 42.7507C112.677 41.8731 112.857 40.9958 113.04 40.1189C114.812 40.4529 116.585 40.7866 118.357 41.12L119.389 37.3379C117.543 36.9898 115.697 36.6421 113.85 36.2946C114.046 35.3946 114.244 34.4942 114.445 33.5935L119.712 34.6801L120.837 30.9163L115.314 29.7762C115.502 28.9648 115.693 28.1528 115.886 27.3403L121.035 28.3979L122.156 24.6329L116.809 23.5345C117.024 22.664 117.242 21.794 117.462 20.9244C119.591 21.4328 120.796 21.4231 122.898 21.977L123.399 18.6587C102.119 13.0107 77.8859 11.6514 61.3967 17.2975C55.2174 41.352 51.9247 63.9991 44.1229 88.7294C43.2579 91.4716 40.4489 93.3468 37.1806 94.6492C30.3252 97.0977 20.9222 97.5555 15.6925 93.6135C12.9069 91.4324 11.5859 87.9106 12.5271 83.5773C13.1118 80.8853 15.2904 78.9396 17.817 78.0132C22.8314 76.521 28.8599 77.1167 32.7703 79.6901C35.9347 81.6523 35.8979 87.7654 31.7846 86.4021C29.3372 85.1007 31.2859 83.9023 29.5972 82.7365C26.6519 81.1696 22.889 80.4432 19.702 81.5615C18.2892 82.0794 17.4455 82.7717 17.1208 84.2662C16.3743 87.7024 17.2947 89.5388 18.8943 90.7911C23.5492 93.6367 30.3909 93.0049 35.1616 91.1522C37.712 90.1355 39.2944 88.74 39.6077 87.7462C47.3615 63.1682 50.6382 40.4703 56.9477 16.0351C53.9527 10.0563 47.8909 7.33454 42.0079 7.33918Z" fill="#235274"/>
</svg>
